<svg width="1060" height="900" viewBox="0 0 1060 900" fill="none" xmlns="http://www.w3.org/2000/svg">
<g clip-path="url(#clip0_33_1890)">
<rect width="1060" height="900" fill="url(#paint0_linear_33_1890)"/>
<path d="M154.992 105.216C159.716 98.7157 168.986 94.3818 178.17 94.3818H270.002C279.186 94.3818 282.159 98.7157 277.436 105.216L230.205 170.224C225.482 176.724 216.211 181.058 207.028 181.058H115.196C106.012 181.058 103.039 176.724 107.762 170.224L154.992 105.216Z" fill="#0B63CE"/>
<path d="M-17.0622 342.029C-11.6644 334.6 -1.94375 329.647 7.23951 329.647H99.0721C108.255 329.647 110.779 334.6 105.381 342.029L51.4034 416.323C46.0056 423.753 36.2849 428.706 27.1016 428.706H-64.7309C-73.9142 428.706 -76.4378 423.753 -71.0401 416.323L-17.0622 342.029Z" fill="#0B63CE"/>
<path d="M109.117 589.677C114.515 582.248 124.236 577.295 133.419 577.295H225.252C234.435 577.295 236.959 582.248 231.561 589.677L177.583 663.971C172.185 671.401 162.465 676.354 153.281 676.354H61.4488C52.2655 676.354 49.7418 671.401 55.1396 663.971L109.117 589.677Z" fill="#0B63CE"/>
<path d="M235.298 837.324C240.695 829.894 250.416 824.941 259.599 824.941H351.432C360.615 824.941 363.139 829.894 357.741 837.324L303.763 911.618C298.365 919.047 288.645 924 279.462 924H187.629C178.446 924 175.922 919.047 181.32 911.618L235.298 837.324Z" fill="#0B63CE"/>
<path d="M901.263 342.029C906.661 334.6 916.382 329.647 925.565 329.647H1017.4C1026.58 329.647 1029.1 334.6 1023.71 342.029L969.729 416.323C964.331 423.753 954.611 428.706 945.427 428.706H853.595C844.411 428.706 841.888 423.753 847.286 416.323L901.263 342.029Z" fill="#0B63CE"/>
<path d="M721.335 589.677C726.733 582.248 736.453 577.295 745.636 577.295H837.469C846.652 577.295 849.176 582.248 843.778 589.677L789.8 663.971C784.403 671.401 774.682 676.354 765.499 676.354H673.666C664.483 676.354 661.959 671.401 667.357 663.971L721.335 589.677Z" fill="#0B63CE"/>
<path d="M1054.32 342.029C1059.72 334.6 1069.44 329.647 1078.62 329.647H1170.45C1179.64 329.647 1182.16 334.6 1176.76 342.029L1122.78 416.323C1117.39 423.753 1107.66 428.706 1098.48 428.706H1006.65C997.466 428.706 994.942 423.753 1000.34 416.323L1054.32 342.029Z" fill="#0B63CE"/>
<path d="M874.389 589.677C879.787 582.248 889.507 577.295 898.691 577.295H990.523C999.707 577.295 1002.23 582.248 996.832 589.677L942.855 663.971C937.457 671.401 927.736 676.354 918.553 676.354H826.72C817.537 676.354 815.013 671.401 820.411 663.971L874.389 589.677Z" fill="#0B63CE"/>
<path d="M810.974 465.382C816.372 457.953 826.092 453 835.276 453H927.108C936.291 453 938.815 457.953 933.417 465.382L879.44 539.676C874.042 547.106 864.321 552.059 855.138 552.059H763.305C754.122 552.059 751.598 547.106 756.996 539.676L810.974 465.382Z" fill="#0B63CE"/>
<path d="M1117.41 465.853C1122.81 458.424 1132.53 453.471 1141.71 453.471H1233.54C1242.73 453.471 1245.25 458.424 1239.85 465.853L1185.87 540.147C1180.48 547.577 1170.75 552.53 1161.57 552.53H1069.74C1060.56 552.53 1058.03 547.577 1063.43 540.147L1117.41 465.853Z" fill="#0B63CE"/>
<path d="M381.139 4.61098C385.188 -0.961076 394.009 -4.67578 403.192 -4.67578L495.025 -4.67578C504.208 -4.67578 507.631 -0.961076 503.583 4.61098L463.1 60.3316C459.051 65.9036 450.23 69.6183 441.047 69.6183H349.214C340.031 69.6183 336.608 65.9036 340.656 60.3316L381.139 4.61098Z" fill="#0B63CE"/>
<path d="M172.208 713.5C177.606 706.07 187.326 701.117 196.51 701.117H288.342C297.525 701.117 300.049 706.07 294.651 713.5L240.673 787.794C235.276 795.223 225.555 800.176 216.372 800.176H124.539C115.356 800.176 112.832 795.223 118.23 787.794L172.208 713.5Z" fill="#0B63CE"/>
<path d="M658.245 465.853C663.643 458.424 673.363 453.471 682.547 453.471H774.379C783.562 453.471 786.086 458.424 780.688 465.853L726.711 540.147C721.313 547.577 711.592 552.53 702.409 552.53H610.576C601.393 552.53 598.869 547.577 604.267 540.147L658.245 465.853Z" fill="#0B63CE"/>
<path d="M478.316 713.5C483.714 706.07 493.435 701.117 502.618 701.117H594.451C603.634 701.117 606.157 706.07 600.76 713.5L546.782 787.794C541.384 795.223 531.663 800.176 522.48 800.176H430.647C421.464 800.176 418.941 795.223 424.338 787.794L478.316 713.5Z" fill="#0B63CE"/>
<path d="M964.353 465.853C969.751 458.424 979.472 453.471 988.655 453.471H1080.49C1089.67 453.471 1092.19 458.424 1086.8 465.853L1032.82 540.147C1027.42 547.577 1017.7 552.53 1008.52 552.53H916.685C907.501 552.53 904.978 547.577 910.375 540.147L964.353 465.853Z" fill="#0B63CE"/>
<path d="M784.425 713.5C789.822 706.07 799.543 701.117 808.726 701.117H900.559C909.742 701.117 912.266 706.07 906.868 713.5L852.89 787.794C847.492 795.223 837.772 800.176 828.588 800.176H736.756C727.573 800.176 725.049 795.223 730.447 787.794L784.425 713.5Z" fill="#0B63CE"/>
<g style="mix-blend-mode:multiply">
<path d="M461.101 105.216C465.824 98.7157 475.095 94.3818 484.278 94.3818H576.111C585.294 94.3818 588.267 98.7157 583.544 105.216L536.314 170.224C531.591 176.724 522.32 181.058 513.137 181.058H421.304C412.121 181.058 409.147 176.724 413.87 170.224L461.101 105.216Z" fill="#0B63CE"/>
</g>
<g style="mix-blend-mode:multiply">
<path d="M289.046 342.029C294.444 334.6 304.165 329.647 313.348 329.647H405.18C414.364 329.647 416.887 334.6 411.49 342.029L357.512 416.323C352.114 423.753 342.393 428.706 333.21 428.706H241.377C232.194 428.706 229.671 423.753 235.068 416.323L289.046 342.029Z" fill="#0B63CE"/>
</g>
<g style="mix-blend-mode:multiply">
<path d="M-70.8112 837.324C-65.4135 829.894 -55.6928 824.941 -46.5095 824.941H45.3231C54.5063 824.941 57.03 829.894 51.6322 837.324L-2.34564 911.618C-7.74343 919.047 -17.4641 924 -26.6474 924H-118.48C-127.663 924 -130.187 919.047 -124.789 911.618L-70.8112 837.324Z" fill="#0B63CE"/>
</g>
<g style="mix-blend-mode:multiply">
<path d="M1073.32 105.216C1078.04 98.7157 1087.31 94.3818 1096.5 94.3818H1188.33C1197.51 94.3818 1200.48 98.7157 1195.76 105.216L1148.53 170.224C1143.81 176.724 1134.54 181.058 1125.35 181.058H1033.52C1024.34 181.058 1021.36 176.724 1026.09 170.224L1073.32 105.216Z" fill="#0B63CE"/>
</g>
<g style="mix-blend-mode:multiply">
<path d="M595.155 342.029C600.552 334.6 610.273 329.647 619.456 329.647H711.289C720.472 329.647 722.996 334.6 717.598 342.029L663.62 416.323C658.222 423.753 648.502 428.706 639.318 428.706H547.486C538.303 428.706 535.779 423.753 541.177 416.323L595.155 342.029Z" fill="#0B63CE"/>
</g>
<g style="mix-blend-mode:multiply">
<path d="M415.226 589.677C420.624 582.248 430.345 577.295 439.528 577.295H531.361C540.544 577.295 543.068 582.248 537.67 589.677L483.692 663.971C478.294 671.401 468.573 676.354 459.39 676.354H367.558C358.374 676.354 355.851 671.401 361.249 663.971L415.226 589.677Z" fill="#0B63CE"/>
</g>
<g style="mix-blend-mode:multiply">
<path d="M1.93829 105.216C6.66135 98.7157 15.9322 94.3818 25.1155 94.3818H116.948C126.131 94.3818 129.105 98.7157 124.382 105.216L77.1511 170.224C72.4281 176.724 63.1572 181.058 53.9739 181.058H-37.8587C-47.0419 181.058 -50.0154 176.724 -45.2923 170.224L1.93829 105.216Z" fill="#0B63CE"/>
</g>
<g style="mix-blend-mode:multiply">
<path d="M135.992 342.029C141.39 334.6 151.11 329.647 160.294 329.647H252.126C261.31 329.647 263.833 334.6 258.435 342.029L204.458 416.323C199.06 423.753 189.339 428.706 180.156 428.706H88.3233C79.14 428.706 76.6164 423.753 82.0141 416.323L135.992 342.029Z" fill="#0B63CE"/>
</g>
<g style="mix-blend-mode:multiply">
<path d="M-43.9367 589.677C-38.539 582.248 -28.8183 577.295 -19.635 577.295H72.1976C81.3808 577.295 83.9045 582.248 78.5067 589.677L24.5289 663.971C19.1311 671.401 9.41039 676.354 0.227137 676.354H-91.6054C-100.789 676.354 -103.312 671.401 -97.9146 663.971L-43.9367 589.677Z" fill="#0B63CE"/>
</g>
<g style="mix-blend-mode:multiply">
<path d="M614.156 105.216C618.879 98.7157 628.15 94.3818 637.333 94.3818H729.165C738.349 94.3818 741.322 98.7157 736.599 105.216L689.368 170.224C684.645 176.724 675.374 181.058 666.191 181.058H574.359C565.175 181.058 562.202 176.724 566.925 170.224L614.156 105.216Z" fill="#0B63CE"/>
</g>
<g style="mix-blend-mode:multiply">
<path d="M82.2434 837.324C87.6412 829.894 97.3619 824.941 106.545 824.941H198.378C207.561 824.941 210.085 829.894 204.687 837.324L150.709 911.618C145.311 919.047 135.591 924 126.407 924H34.5747C25.3915 924 22.8678 919.047 28.2656 911.618L82.2434 837.324Z" fill="#0B63CE"/>
</g>
<g style="mix-blend-mode:multiply">
<path d="M920.264 105.216C924.987 98.7157 934.258 94.3818 943.441 94.3818H1035.27C1044.46 94.3818 1047.43 98.7157 1042.71 105.216L995.477 170.224C990.754 176.724 981.483 181.058 972.3 181.058H880.467C871.284 181.058 868.31 176.724 873.033 170.224L920.264 105.216Z" fill="#0B63CE"/>
</g>
<g style="mix-blend-mode:multiply">
<path d="M748.209 342.029C753.607 334.6 763.327 329.647 772.511 329.647H864.343C873.526 329.647 876.05 334.6 870.652 342.029L816.674 416.323C811.277 423.753 801.556 428.706 792.373 428.706H700.54C691.357 428.706 688.833 423.753 694.231 416.323L748.209 342.029Z" fill="#0B63CE"/>
</g>
<g style="mix-blend-mode:multiply">
<path d="M388.352 837.324C393.75 829.894 403.47 824.941 412.654 824.941H504.486C513.669 824.941 516.193 829.894 510.795 837.324L456.817 911.618C451.42 919.047 441.699 924 432.516 924H340.683C331.5 924 328.976 919.047 334.374 911.618L388.352 837.324Z" fill="#0B63CE"/>
</g>
<g style="mix-blend-mode:multiply">
<path d="M694.46 837.324C699.858 829.894 709.579 824.941 718.762 824.941H810.595C819.778 824.941 822.301 829.894 816.904 837.324L762.926 911.618C757.528 919.047 747.807 924 738.624 924H646.792C637.608 924 635.085 919.047 640.482 911.618L694.46 837.324Z" fill="#0B63CE"/>
</g>
<g style="mix-blend-mode:multiply">
<path d="M1000.57 837.324C1005.97 829.894 1015.69 824.941 1024.87 824.941H1116.7C1125.89 824.941 1128.41 829.894 1123.01 837.324L1069.03 911.618C1063.64 919.047 1053.92 924 1044.73 924H952.9C943.717 924 941.194 919.047 946.591 911.618L1000.57 837.324Z" fill="#0B63CE"/>
</g>
<g style="mix-blend-mode:multiply">
<path d="M-78.0231 4.61098C-73.9748 -0.961076 -65.1537 -4.67578 -55.9704 -4.67578L35.8621 -4.67578C45.0454 -4.67578 48.4687 -0.961076 44.4203 4.61098L3.93696 60.3316C-0.11138 65.9036 -8.93244 69.6183 -18.1157 69.6183H-109.948C-119.132 69.6183 -122.555 65.9036 -118.506 60.3316L-78.0231 4.61098Z" fill="#0B63CE"/>
</g>
<g style="mix-blend-mode:multiply">
<path d="M228.086 4.61098C232.134 -0.961076 240.955 -4.67578 250.138 -4.67578L341.971 -4.67578C351.154 -4.67578 354.578 -0.961076 350.529 4.61098L310.046 60.3316C305.998 65.9036 297.176 69.6183 287.993 69.6183H196.161C186.977 69.6183 183.554 65.9036 187.602 60.3316L228.086 4.61098Z" fill="#0B63CE"/>
</g>
<g style="mix-blend-mode:multiply">
<path d="M72.8943 218.207C78.2921 210.777 88.0128 205.824 97.1961 205.824H189.029C198.212 205.824 200.736 210.777 195.338 218.207L141.36 292.501C135.962 299.93 126.241 304.883 117.058 304.883H25.2256C16.0423 304.883 13.5187 299.93 18.9165 292.501L72.8943 218.207Z" fill="#0B63CE"/>
</g>
<g style="mix-blend-mode:multiply">
<path d="M-107.027 465.853C-101.629 458.424 -91.9081 453.471 -82.7248 453.471H9.10774C18.291 453.471 20.8146 458.424 15.4169 465.853L-38.561 540.147C-43.9588 547.577 -53.6794 552.53 -62.8627 552.53H-154.695C-163.879 552.53 -166.402 547.577 -161.004 540.147L-107.027 465.853Z" fill="#0B63CE"/>
</g>
<g style="mix-blend-mode:multiply">
<path d="M534.194 4.61098C538.242 -0.961076 547.063 -4.67578 556.246 -4.67578L648.079 -4.67578C657.262 -4.67578 660.685 -0.961076 656.637 4.61098L616.154 60.3316C612.105 65.9036 603.284 69.6183 594.101 69.6183H502.269C493.085 69.6183 489.662 65.9036 493.71 60.3316L534.194 4.61098Z" fill="#0B63CE"/>
</g>
<g style="mix-blend-mode:multiply">
<path d="M379.003 218.207C384.401 210.777 394.121 205.824 403.304 205.824H495.137C504.32 205.824 506.844 210.777 501.446 218.207L447.468 292.501C442.071 299.93 432.35 304.883 423.167 304.883H331.334C322.151 304.883 319.627 299.93 325.025 292.501L379.003 218.207Z" fill="#0B63CE"/>
</g>
<g style="mix-blend-mode:multiply">
<path d="M840.303 4.61098C844.351 -0.961076 853.172 -4.67578 862.356 -4.67578L954.188 -4.67578C963.372 -4.67578 966.795 -0.961076 962.747 4.61098L922.263 60.3316C918.215 65.9036 909.394 69.6183 900.21 69.6183H808.378C799.195 69.6183 795.771 65.9036 799.82 60.3316L840.303 4.61098Z" fill="#0B63CE"/>
</g>
<g style="mix-blend-mode:multiply">
<path d="M685.111 218.207C690.509 210.777 700.23 205.824 709.413 205.824H801.245C810.429 205.824 812.952 210.777 807.555 218.207L753.577 292.501C748.179 299.93 738.458 304.883 729.275 304.883H637.442C628.259 304.883 625.735 299.93 631.133 292.501L685.111 218.207Z" fill="#0B63CE"/>
</g>
<g style="mix-blend-mode:multiply">
<path d="M505.191 465.853C510.588 458.424 520.309 453.471 529.492 453.471H621.325C630.508 453.471 633.032 458.424 627.634 465.853L573.656 540.147C568.259 547.577 558.538 552.53 549.355 552.53H457.522C448.339 552.53 445.815 547.577 451.213 540.147L505.191 465.853Z" fill="#0B63CE"/>
</g>
<g style="mix-blend-mode:multiply">
<path d="M325.262 713.5C330.66 706.07 340.38 701.117 349.564 701.117H441.396C450.58 701.117 453.103 706.07 447.705 713.5L393.728 787.794C388.33 795.223 378.609 800.176 369.426 800.176H277.593C268.41 800.176 265.886 795.223 271.284 787.794L325.262 713.5Z" fill="#0B63CE"/>
</g>
<g style="mix-blend-mode:multiply">
<path d="M991.22 218.207C996.618 210.777 1006.34 205.824 1015.52 205.824H1107.35C1116.54 205.824 1119.06 210.777 1113.66 218.207L1059.69 292.501C1054.29 299.93 1044.57 304.883 1035.38 304.883H943.551C934.368 304.883 931.844 299.93 937.242 292.501L991.22 218.207Z" fill="#0B63CE"/>
</g>
<g style="mix-blend-mode:multiply">
<path d="M937.479 713.5C942.877 706.07 952.597 701.117 961.781 701.117H1053.61C1062.8 701.117 1065.32 706.07 1059.92 713.5L1005.94 787.794C1000.55 795.223 990.826 800.176 981.643 800.176H889.81C880.627 800.176 878.103 795.223 883.501 787.794L937.479 713.5Z" fill="#0B63CE"/>
</g>
<g style="mix-blend-mode:multiply">
<path d="M75.0311 4.61098C79.0794 -0.961076 87.9005 -4.67578 97.0838 -4.67578L188.916 -4.67578C198.1 -4.67578 201.523 -0.961076 197.475 4.61098L156.991 60.3316C152.943 65.9036 144.122 69.6183 134.939 69.6183H43.1059C33.9227 69.6183 30.4994 65.9036 34.5477 60.3316L75.0311 4.61098Z" fill="#0B63CE"/>
</g>
<g style="mix-blend-mode:multiply">
<path d="M-80.1599 218.207C-74.7621 210.777 -65.0414 205.824 -55.8581 205.824H35.9744C45.1577 205.824 47.6813 210.777 42.2836 218.207L-11.6943 292.501C-17.0921 299.93 -26.8127 304.883 -35.996 304.883H-127.829C-137.012 304.883 -139.536 299.93 -134.138 292.501L-80.1599 218.207Z" fill="#0B63CE"/>
</g>
<g style="mix-blend-mode:multiply">
<path d="M225.949 218.207C231.346 210.777 241.067 205.824 250.25 205.824H342.083C351.266 205.824 353.79 210.777 348.392 218.207L294.414 292.501C289.016 299.93 279.296 304.883 270.112 304.883H178.28C169.097 304.883 166.573 299.93 171.971 292.501L225.949 218.207Z" fill="#0B63CE"/>
</g>
<g style="mix-blend-mode:multiply">
<path d="M46.0271 465.853C51.4249 458.424 61.1456 453.471 70.3289 453.471H162.161C171.345 453.471 173.868 458.424 168.471 465.853L114.493 540.147C109.095 547.577 99.3743 552.53 90.191 552.53H-1.64158C-10.8248 552.53 -13.3485 547.577 -7.95071 540.147L46.0271 465.853Z" fill="#0B63CE"/>
</g>
<g style="mix-blend-mode:multiply">
<path d="M687.248 4.61098C691.296 -0.961076 700.117 -4.67578 709.301 -4.67578L801.133 -4.67578C810.316 -4.67578 813.74 -0.961076 809.691 4.61098L769.208 60.3316C765.16 65.9036 756.339 69.6183 747.155 69.6183H655.323C646.139 69.6183 642.716 65.9036 646.765 60.3316L687.248 4.61098Z" fill="#0B63CE"/>
</g>
<g style="mix-blend-mode:multiply">
<path d="M352.136 465.853C357.534 458.424 367.254 453.471 376.438 453.471H468.27C477.454 453.471 479.977 458.424 474.579 465.853L420.602 540.147C415.204 547.577 405.483 552.53 396.3 552.53H304.467C295.284 552.53 292.76 547.577 298.158 540.147L352.136 465.853Z" fill="#0B63CE"/>
</g>
<g style="mix-blend-mode:multiply">
<path d="M838.166 218.207C843.564 210.777 853.284 205.824 862.468 205.824H954.3C963.483 205.824 966.007 210.777 960.609 218.207L906.631 292.501C901.234 299.93 891.513 304.883 882.33 304.883H790.497C781.314 304.883 778.79 299.93 784.188 292.501L838.166 218.207Z" fill="#0B63CE"/>
</g>
<g style="mix-blend-mode:multiply">
<path d="M1090.53 713.5C1095.93 706.07 1105.65 701.117 1114.84 701.117H1206.67C1215.85 701.117 1218.38 706.07 1212.98 713.5L1159 787.794C1153.6 795.223 1143.88 800.176 1134.7 800.176H1042.87C1033.68 800.176 1031.16 795.223 1036.56 787.794L1090.53 713.5Z" fill="#0B63CE"/>
</g>
<g style="mix-blend-mode:overlay">
<path d="M767.21 105.216C771.933 98.7157 781.204 94.3818 790.387 94.3818H882.22C891.403 94.3818 894.376 98.7157 889.653 105.216L842.423 170.224C837.7 176.724 828.429 181.058 819.245 181.058H727.413C718.23 181.058 715.256 176.724 719.979 170.224L767.21 105.216Z" fill="#0259C7"/>
</g>
<g style="mix-blend-mode:overlay">
<path d="M847.514 837.324C852.912 829.894 862.633 824.941 871.816 824.941H963.649C972.832 824.941 975.356 829.894 969.958 837.324L915.98 911.618C910.582 919.047 900.862 924 891.678 924H799.846C790.662 924 788.139 919.047 793.537 911.618L847.514 837.324Z" fill="#7DB7FF"/>
</g>
<g style="mix-blend-mode:overlay">
<path d="M308.047 105.216C312.77 98.7157 322.041 94.3818 331.224 94.3818H423.056C432.24 94.3818 435.213 98.7157 430.49 105.216L383.26 170.224C378.536 176.724 369.266 181.058 360.082 181.058H268.25C259.066 181.058 256.093 176.724 260.816 170.224L308.047 105.216Z" fill="#0259C7"/>
</g>
<g style="mix-blend-mode:overlay">
<path d="M442.1 342.029C447.498 334.6 457.218 329.647 466.402 329.647H558.234C567.417 329.647 569.941 334.6 564.543 342.029L510.565 416.323C505.168 423.753 495.447 428.706 486.264 428.706H394.431C385.248 428.706 382.724 423.753 388.122 416.323L442.1 342.029Z" fill="#0259C7"/>
</g>
<g style="mix-blend-mode:overlay">
<path d="M262.172 589.677C267.569 582.248 277.29 577.295 286.473 577.295H378.306C387.489 577.295 390.013 582.248 384.615 589.677L330.637 663.971C325.239 671.401 315.519 676.354 306.336 676.354H214.503C205.32 676.354 202.796 671.401 208.194 663.971L262.172 589.677Z" fill="#0259C7"/>
</g>
<g style="mix-blend-mode:overlay">
<path d="M631.37 713.5C636.768 706.07 646.489 701.117 655.672 701.117H747.505C756.688 701.117 759.212 706.07 753.814 713.5L699.836 787.794C694.438 795.223 684.718 800.176 675.534 800.176H583.702C574.518 800.176 571.995 795.223 577.393 787.794L631.37 713.5Z" fill="#2C89FF"/>
</g>
<g style="mix-blend-mode:color-burn">
<path d="M541.406 837.324C546.804 829.894 556.525 824.941 565.708 824.941H657.54C666.724 824.941 669.247 829.894 663.849 837.324L609.872 911.618C604.474 919.047 594.753 924 585.57 924H493.737C484.554 924 482.03 919.047 487.428 911.618L541.406 837.324Z" fill="#1874E4"/>
</g>
<g style="mix-blend-mode:color-burn">
<path d="M1027.44 589.677C1032.84 582.248 1042.56 577.295 1051.74 577.295H1143.58C1152.76 577.295 1155.28 582.248 1149.89 589.677L1095.91 663.971C1090.51 671.401 1080.79 676.354 1071.61 676.354H979.774C970.591 676.354 968.068 671.401 973.465 663.971L1027.44 589.677Z" fill="#1874E4"/>
</g>
<g style="mix-blend-mode:color-burn">
<path d="M568.281 589.677C573.678 582.248 583.399 577.295 592.582 577.295H684.415C693.598 577.295 696.122 582.248 690.724 589.677L636.746 663.971C631.348 671.401 621.628 676.354 612.444 676.354H520.612C511.429 676.354 508.905 671.401 514.303 663.971L568.281 589.677Z" fill="#1874E4"/>
</g>
<g style="mix-blend-mode:color-burn">
<path d="M199.082 465.853C204.48 458.424 214.2 453.471 223.384 453.471H315.216C324.399 453.471 326.923 458.424 321.525 465.853L267.547 540.147C262.15 547.577 252.429 552.53 243.246 552.53H151.413C142.23 552.53 139.706 547.577 145.104 540.147L199.082 465.853Z" fill="#1874E4"/>
</g>
<g style="mix-blend-mode:color-burn">
<path d="M19.1531 713.5C24.5509 706.07 34.2716 701.117 43.4548 701.117H135.287C144.471 701.117 146.994 706.07 141.597 713.5L87.6187 787.794C82.2209 795.223 72.5002 800.176 63.317 800.176H-28.5156C-37.6989 800.176 -40.2225 795.223 -34.8247 787.794L19.1531 713.5Z" fill="#1874E4"/>
</g>
<g style="mix-blend-mode:color-burn">
<path d="M532.057 218.207C537.455 210.777 547.175 205.824 556.359 205.824H648.191C657.374 205.824 659.898 210.777 654.5 218.207L600.523 292.501C595.125 299.93 585.404 304.883 576.221 304.883H484.388C475.205 304.883 472.681 299.93 478.079 292.501L532.057 218.207Z" fill="#1874E4"/>
</g>
<g style="mix-blend-mode:color-burn">
<path d="M993.357 4.61098C997.405 -0.961076 1006.23 -4.67578 1015.41 -4.67578L1107.24 -4.67578C1116.43 -4.67578 1119.85 -0.961076 1115.8 4.61098L1075.32 60.3316C1071.27 65.9036 1062.45 69.6183 1053.26 69.6183H961.432C952.248 69.6183 948.825 65.9036 952.873 60.3316L993.357 4.61098Z" fill="#1874E4"/>
</g>
<path d="M658.245 465.853C663.643 458.424 673.364 453.471 682.547 453.471H774.379C780.344 453.471 783.499 455.56 783.499 459.06C783.499 460.949 782.581 463.249 780.688 465.853L726.711 540.147C721.313 547.577 711.592 552.53 702.409 552.53H610.576C604.612 552.53 601.457 550.441 601.457 546.941C601.456 545.052 602.375 542.752 604.267 540.147L658.245 465.853Z" fill="url(#paint1_linear_33_1890)"/>
<path d="M774.379 349.471H682.547L682.547 453.471H774.379L774.379 349.471Z" fill="url(#paint2_linear_33_1890)"/>
<path d="M783.499 355.06C783.499 351.56 780.344 349.471 774.379 349.471L774.379 453.471C780.344 453.471 783.499 455.56 783.499 459.06L783.499 355.06Z" fill="url(#paint3_linear_33_1890)"/>
<path d="M682.547 349.471C673.364 349.471 663.643 354.424 658.245 361.853L658.245 465.853C663.643 458.424 673.364 453.471 682.547 453.471L682.547 349.471Z" fill="url(#paint4_linear_33_1890)"/>
<path d="M780.688 361.853C782.58 359.25 783.499 356.95 783.499 355.061L783.499 459.06C783.499 460.949 782.581 463.249 780.688 465.853L780.688 361.853Z" fill="url(#paint5_linear_33_1890)"/>
<path d="M658.245 361.853L604.267 436.147L604.267 540.147L658.245 465.853L658.245 361.853Z" fill="url(#paint6_linear_33_1890)"/>
<path d="M726.71 436.147L780.688 361.853L780.688 465.853L726.71 540.147L726.71 436.147Z" fill="url(#paint7_linear_33_1890)"/>
<path d="M604.267 436.147C602.375 438.752 601.456 441.052 601.457 442.941L601.457 546.939C601.457 545.051 602.376 542.751 604.267 540.147L604.267 436.147Z" fill="url(#paint8_linear_33_1890)"/>
<path d="M702.409 448.53C711.592 448.53 721.313 443.577 726.71 436.147L726.71 540.147C721.313 547.577 711.592 552.53 702.409 552.53L702.409 448.53Z" fill="url(#paint9_linear_33_1890)"/>
<path d="M601.457 442.941C601.457 446.441 604.612 448.53 610.576 448.53L610.576 552.53C604.612 552.53 601.457 550.441 601.457 546.941L601.457 442.941Z" fill="url(#paint10_linear_33_1890)"/>
<path d="M610.576 448.53H702.409L702.409 552.53H610.576L610.576 448.53Z" fill="url(#paint11_linear_33_1890)"/>
<path d="M681.959 350.28H773.791C778.155 350.28 780.863 351.453 781.879 353.448C782.895 355.443 782.253 358.323 779.688 361.853L725.711 436.147C723.145 439.678 719.603 442.558 715.688 444.553C711.773 446.547 707.361 447.721 702.996 447.721H611.164C606.8 447.721 604.093 446.547 603.076 444.553C602.06 442.558 602.702 439.678 605.267 436.147L659.245 361.853C661.81 358.323 665.353 355.443 669.268 353.448C673.183 351.453 677.595 350.28 681.959 350.28Z" fill="#0C64D3" stroke="#137DFF" stroke-width="2" stroke-miterlimit="1"/>
<path d="M810.974 465.382C816.372 457.953 826.093 453 835.276 453H927.108C933.073 453 936.228 455.089 936.228 458.589C936.228 460.478 935.31 462.778 933.417 465.382L879.44 539.676C874.042 547.106 864.321 552.059 855.138 552.059H763.305C757.341 552.059 754.186 549.97 754.186 546.47C754.185 544.581 755.104 542.281 756.996 539.676L810.974 465.382Z" fill="url(#paint12_linear_33_1890)"/>
<path d="M927.108 305H835.276L835.276 453H927.108L927.108 305Z" fill="url(#paint13_linear_33_1890)"/>
<path d="M936.228 310.589C936.228 307.089 933.073 305 927.108 305L927.108 453C933.073 453 936.228 455.089 936.228 458.589L936.228 310.589Z" fill="url(#paint14_linear_33_1890)"/>
<path d="M835.276 305C826.093 305 816.372 309.953 810.974 317.382L810.974 465.382C816.372 457.953 826.093 453 835.276 453L835.276 305Z" fill="url(#paint15_linear_33_1890)"/>
<path d="M933.417 317.382C935.309 314.779 936.228 312.479 936.228 310.591L936.228 458.589C936.228 460.478 935.31 462.778 933.417 465.382L933.417 317.382Z" fill="url(#paint16_linear_33_1890)"/>
<path d="M810.974 317.382L756.996 391.676L756.996 539.676L810.974 465.382L810.974 317.382Z" fill="url(#paint17_linear_33_1890)"/>
<path d="M879.439 391.676L933.417 317.382L933.417 465.382L879.439 539.676L879.439 391.676Z" fill="url(#paint18_linear_33_1890)"/>
<path d="M756.996 391.677C755.104 394.281 754.185 396.581 754.186 398.47L754.186 546.468C754.186 544.58 755.105 542.28 756.996 539.677L756.996 391.677Z" fill="url(#paint19_linear_33_1890)"/>
<path d="M855.138 404.059C864.321 404.059 874.042 399.106 879.439 391.677L879.439 539.677C874.042 547.106 864.321 552.059 855.138 552.059L855.138 404.059Z" fill="url(#paint20_linear_33_1890)"/>
<path d="M754.186 398.47C754.186 401.97 757.341 404.059 763.305 404.059L763.305 552.059C757.341 552.059 754.186 549.97 754.186 546.47L754.186 398.47Z" fill="url(#paint21_linear_33_1890)"/>
<path d="M763.305 404.059H855.138L855.138 552.059H763.305L763.305 404.059Z" fill="url(#paint22_linear_33_1890)"/>
<path d="M834.688 305.809H926.52C930.884 305.809 933.592 306.982 934.608 308.977C935.624 310.972 934.982 313.852 932.417 317.383L878.44 391.676C875.874 395.207 872.332 398.087 868.417 400.082C864.502 402.076 860.09 403.25 855.725 403.25H763.893C759.529 403.25 756.822 402.076 755.805 400.082C754.789 398.087 755.431 395.207 757.996 391.676L811.974 317.383C814.539 313.852 818.082 310.972 821.997 308.977C825.912 306.982 830.324 305.809 834.688 305.809Z" fill="#0C64D3" stroke="#137DFF" stroke-width="2" stroke-miterlimit="1"/>
<path d="M964.313 465.853C969.711 458.424 979.431 453.471 988.615 453.471H1080.45C1086.41 453.471 1089.57 455.56 1089.57 459.06C1089.57 460.949 1088.65 463.249 1086.76 465.853L1032.78 540.147C1027.38 547.577 1017.66 552.53 1008.48 552.53H916.644C910.68 552.53 907.525 550.441 907.524 546.941C907.524 545.052 908.443 542.752 910.335 540.147L964.313 465.853Z" fill="url(#paint23_linear_33_1890)"/>
<path d="M1080.45 208.471H988.615L988.615 453.471H1080.45L1080.45 208.471Z" fill="url(#paint24_linear_33_1890)"/>
<path d="M988.615 208.471C979.431 208.471 969.711 213.424 964.313 220.853L964.313 465.853C969.711 458.424 979.431 453.471 988.615 453.471L988.615 208.471Z" fill="url(#paint25_linear_33_1890)"/>
<path d="M964.313 220.853L910.335 295.147L910.335 540.147L964.313 465.853L964.313 220.853Z" fill="url(#paint26_linear_33_1890)"/>
<path d="M1032.78 295.147L1086.76 220.853L1086.76 465.853L1032.78 540.147L1032.78 295.147Z" fill="url(#paint27_linear_33_1890)"/>
<path d="M910.335 295.147C908.443 297.752 907.524 300.052 907.524 301.941L907.524 546.939C907.525 545.051 908.443 542.751 910.335 540.147L910.335 295.147Z" fill="url(#paint28_linear_33_1890)"/>
<path d="M1008.48 307.53C1017.66 307.53 1027.38 302.577 1032.78 295.147L1032.78 540.147C1027.38 547.577 1017.66 552.53 1008.48 552.53L1008.48 307.53Z" fill="url(#paint29_linear_33_1890)"/>
<path d="M907.524 301.941C907.525 305.441 910.68 307.53 916.644 307.53L916.644 552.53C910.68 552.53 907.525 550.441 907.524 546.941L907.524 301.941Z" fill="url(#paint30_linear_33_1890)"/>
<path d="M916.644 307.53H1008.48L1008.48 552.53H916.644L916.644 307.53Z" fill="url(#paint31_linear_33_1890)"/>
<path d="M988.027 209.28H1079.86C1084.22 209.28 1086.93 210.453 1087.95 212.448C1088.96 214.443 1088.32 217.323 1085.76 220.853L1031.78 295.147C1029.21 298.678 1025.67 301.558 1021.76 303.553C1017.84 305.547 1013.43 306.721 1009.06 306.721H917.232C912.868 306.721 910.161 305.547 909.144 303.553C908.128 301.558 908.77 298.678 911.335 295.147L965.313 220.853C967.878 217.323 971.421 214.443 975.336 212.448C979.25 210.453 983.663 209.28 988.027 209.28Z" fill="#0C64D3" stroke="#137DFF" stroke-width="2" stroke-miterlimit="1"/>
<path d="M721.335 589.677C726.733 582.248 736.453 577.295 745.637 577.295H837.469C843.433 577.295 846.589 579.384 846.589 582.884C846.589 584.773 845.67 587.073 843.778 589.677L789.8 663.971C784.403 671.401 774.682 676.354 765.499 676.354H673.666C667.702 676.354 664.547 674.265 664.546 670.765C664.546 668.876 665.465 666.576 667.357 663.971L721.335 589.677Z" fill="url(#paint32_linear_33_1890)"/>
<path d="M837.469 502.295H745.637L745.637 577.295H837.469L837.469 502.295Z" fill="url(#paint33_linear_33_1890)"/>
<path d="M846.589 507.884C846.589 504.384 843.433 502.295 837.469 502.295L837.469 577.295C843.433 577.295 846.589 579.384 846.589 582.884L846.589 507.884Z" fill="url(#paint34_linear_33_1890)"/>
<path d="M745.637 502.295C736.453 502.295 726.733 507.248 721.335 514.677L721.335 589.677C726.733 582.248 736.453 577.295 745.637 577.295L745.637 502.295Z" fill="url(#paint35_linear_33_1890)"/>
<path d="M843.778 514.677C845.67 512.074 846.589 509.774 846.589 507.885L846.589 582.884C846.589 584.773 845.67 587.073 843.778 589.677L843.778 514.677Z" fill="url(#paint36_linear_33_1890)"/>
<path d="M721.335 514.677L667.357 588.971L667.357 663.971L721.335 589.677L721.335 514.677Z" fill="url(#paint37_linear_33_1890)"/>
<path d="M789.8 588.971L843.778 514.677L843.778 589.677L789.8 663.971L789.8 588.971Z" fill="url(#paint38_linear_33_1890)"/>
<path d="M667.357 588.971C665.465 591.576 664.546 593.876 664.546 595.765L664.546 670.763C664.547 668.875 665.465 666.575 667.357 663.971L667.357 588.971Z" fill="url(#paint39_linear_33_1890)"/>
<path d="M765.499 601.354C774.682 601.354 784.402 596.401 789.8 588.971L789.8 663.971C784.402 671.401 774.682 676.354 765.499 676.354L765.499 601.354Z" fill="url(#paint40_linear_33_1890)"/>
<path d="M664.546 595.765C664.547 599.265 667.702 601.354 673.666 601.354L673.666 676.354C667.702 676.354 664.547 674.265 664.546 670.765L664.546 595.765Z" fill="url(#paint41_linear_33_1890)"/>
<path d="M673.666 601.354H765.499L765.499 676.354H673.666L673.666 601.354Z" fill="url(#paint42_linear_33_1890)"/>
<path d="M745.049 503.104H836.881C841.245 503.104 843.952 504.277 844.969 506.272C845.985 508.267 845.343 511.147 842.778 514.677L788.8 588.971C786.235 592.502 782.693 595.382 778.778 597.377C774.863 599.371 770.451 600.545 766.086 600.545H674.254C669.89 600.545 667.183 599.371 666.166 597.377C665.15 595.382 665.792 592.502 668.357 588.971L722.335 514.677C724.9 511.147 728.443 508.267 732.358 506.272C736.272 504.277 740.685 503.104 745.049 503.104Z" fill="#0C64D3" stroke="#137DFF" stroke-width="2" stroke-miterlimit="1"/>
<path d="M874.389 589.677C879.787 582.248 889.508 577.295 898.691 577.295H990.523C996.488 577.295 999.643 579.384 999.643 582.884C999.643 584.773 998.725 587.073 996.833 589.677L942.855 663.971C937.457 671.401 927.736 676.354 918.553 676.354H826.72C820.756 676.354 817.601 674.265 817.601 670.765C817.6 668.876 818.519 666.576 820.411 663.971L874.389 589.677Z" fill="url(#paint43_linear_33_1890)"/>
<path d="M990.523 461.295H898.691L898.691 577.295H990.523L990.523 461.295Z" fill="url(#paint44_linear_33_1890)"/>
<path d="M999.643 466.884C999.643 463.384 996.488 461.295 990.523 461.295L990.523 577.295C996.488 577.295 999.643 579.384 999.643 582.884L999.643 466.884Z" fill="url(#paint45_linear_33_1890)"/>
<path d="M898.691 461.295C889.508 461.295 879.787 466.248 874.389 473.677L874.389 589.677C879.787 582.248 889.508 577.295 898.691 577.295L898.691 461.295Z" fill="url(#paint46_linear_33_1890)"/>
<path d="M996.833 473.677C998.724 471.074 999.643 468.774 999.643 466.885L999.643 582.884C999.643 584.773 998.725 587.073 996.833 589.677L996.833 473.677Z" fill="url(#paint47_linear_33_1890)"/>
<path d="M874.389 473.677L820.411 547.971L820.411 663.971L874.389 589.677L874.389 473.677Z" fill="url(#paint48_linear_33_1890)"/>
<path d="M942.854 547.971L996.832 473.677L996.832 589.677L942.854 663.971L942.854 547.971Z" fill="url(#paint49_linear_33_1890)"/>
<path d="M820.411 547.971C818.519 550.576 817.6 552.876 817.601 554.765L817.601 670.763C817.601 668.875 818.52 666.575 820.411 663.971L820.411 547.971Z" fill="url(#paint50_linear_33_1890)"/>
<path d="M918.553 560.354C927.736 560.354 937.457 555.401 942.854 547.971L942.854 663.971C937.457 671.401 927.736 676.354 918.553 676.354L918.553 560.354Z" fill="url(#paint51_linear_33_1890)"/>
<path d="M817.601 554.765C817.601 558.265 820.756 560.354 826.72 560.354L826.72 676.354C820.756 676.354 817.601 674.265 817.601 670.765L817.601 554.765Z" fill="url(#paint52_linear_33_1890)"/>
<path d="M826.72 560.354H918.553L918.553 676.354H826.72L826.72 560.354Z" fill="url(#paint53_linear_33_1890)"/>
<path d="M898.103 462.104H989.935C994.3 462.104 997.007 463.277 998.023 465.272C999.039 467.267 998.397 470.147 995.832 473.677L941.855 547.971C939.289 551.502 935.747 554.382 931.832 556.377C927.917 558.371 923.505 559.545 919.14 559.545H827.308C822.944 559.545 820.237 558.371 819.22 556.377C818.204 554.382 818.846 551.502 821.411 547.971L875.389 473.677C877.954 470.147 881.497 467.267 885.412 465.272C889.327 463.277 893.739 462.104 898.103 462.104Z" fill="#0C64D3" stroke="#137DFF" stroke-width="2" stroke-miterlimit="1"/>
<path d="M784.425 713.5C789.823 706.07 799.543 701.117 808.726 701.117H900.559C906.523 701.117 909.678 703.206 909.679 706.706C909.679 708.595 908.76 710.895 906.868 713.5L852.89 787.794C847.493 795.223 837.772 800.176 828.589 800.176H736.756C730.792 800.176 727.637 798.087 727.636 794.587C727.636 792.698 728.555 790.398 730.447 787.794L784.425 713.5Z" fill="url(#paint54_linear_33_1890)"/>
<path d="M900.559 642.117H808.727L808.727 701.117H900.559L900.559 642.117Z" fill="url(#paint55_linear_33_1890)"/>
<path d="M909.679 647.706C909.678 644.206 906.523 642.117 900.559 642.117L900.559 701.117C906.523 701.117 909.678 703.206 909.679 706.706L909.679 647.706Z" fill="url(#paint56_linear_33_1890)"/>
<path d="M808.727 642.117C799.543 642.117 789.823 647.07 784.425 654.5L784.425 713.5C789.823 706.07 799.543 701.117 808.727 701.117L808.727 642.117Z" fill="url(#paint57_linear_33_1890)"/>
<path d="M906.868 654.5C908.76 651.896 909.679 649.596 909.679 647.708L909.679 706.706C909.679 708.595 908.76 710.895 906.868 713.5L906.868 654.5Z" fill="url(#paint58_linear_33_1890)"/>
<path d="M784.425 654.5L730.447 728.794L730.447 787.794L784.425 713.5L784.425 654.5Z" fill="url(#paint59_linear_33_1890)"/>
<path d="M852.89 728.794L906.868 654.5L906.868 713.5L852.89 787.794L852.89 728.794Z" fill="url(#paint60_linear_33_1890)"/>
<path d="M730.447 728.794C728.555 731.398 727.636 733.698 727.636 735.587L727.636 794.586C727.636 792.697 728.555 790.397 730.447 787.794L730.447 728.794Z" fill="url(#paint61_linear_33_1890)"/>
<path d="M828.588 741.176C837.772 741.176 847.492 736.223 852.89 728.794L852.89 787.794C847.492 795.223 837.772 800.176 828.588 800.176L828.588 741.176Z" fill="url(#paint62_linear_33_1890)"/>
<path d="M727.636 735.587C727.637 739.087 730.792 741.176 736.756 741.176L736.756 800.176C730.792 800.176 727.637 798.087 727.636 794.587L727.636 735.587Z" fill="url(#paint63_linear_33_1890)"/>
<path d="M736.756 741.176H828.588L828.588 800.176H736.756L736.756 741.176Z" fill="url(#paint64_linear_33_1890)"/>
<path d="M808.139 642.926H899.971C904.335 642.926 907.042 644.1 908.059 646.094C909.075 648.089 908.433 650.969 905.868 654.5L851.89 728.793C849.325 732.324 845.782 735.204 841.867 737.199C837.952 739.194 833.54 740.367 829.176 740.367H737.344C732.98 740.367 730.272 739.194 729.256 737.199C728.24 735.204 728.882 732.324 731.447 728.793L785.424 654.5C787.99 650.969 791.532 648.089 795.447 646.094C799.362 644.1 803.774 642.926 808.139 642.926Z" fill="#0C64D3" stroke="#137DFF" stroke-width="2" stroke-miterlimit="1"/>
<path d="M478.316 713.5C483.714 706.07 493.435 701.117 502.618 701.117H594.451C600.415 701.117 603.57 703.206 603.57 706.706C603.571 708.595 602.652 710.895 600.76 713.5L546.782 787.794C541.384 795.223 531.663 800.176 522.48 800.176H430.648C424.683 800.176 421.528 798.087 421.528 794.587C421.528 792.698 422.446 790.398 424.338 787.794L478.316 713.5Z" fill="url(#paint65_linear_33_1890)"/>
<path d="M594.451 642.117H502.618L502.618 701.117H594.451L594.451 642.117Z" fill="url(#paint66_linear_33_1890)"/>
<path d="M603.57 647.706C603.57 644.206 600.415 642.117 594.451 642.117L594.451 701.117C600.415 701.117 603.57 703.206 603.57 706.706L603.57 647.706Z" fill="url(#paint67_linear_33_1890)"/>
<path d="M502.618 642.117C493.435 642.117 483.714 647.07 478.316 654.5L478.316 713.5C483.714 706.07 493.435 701.117 502.618 701.117L502.618 642.117Z" fill="url(#paint68_linear_33_1890)"/>
<path d="M600.76 654.5C602.651 651.896 603.57 649.596 603.57 647.708L603.57 706.706C603.571 708.595 602.652 710.895 600.76 713.5L600.76 654.5Z" fill="url(#paint69_linear_33_1890)"/>
<path d="M478.316 654.5L424.338 728.794L424.338 787.794L478.316 713.5L478.316 654.5Z" fill="url(#paint70_linear_33_1890)"/>
<path d="M546.782 728.794L600.76 654.5L600.76 713.5L546.782 787.794L546.782 728.794Z" fill="url(#paint71_linear_33_1890)"/>
<path d="M424.338 728.794C422.446 731.398 421.528 733.698 421.528 735.587L421.528 794.586C421.528 792.697 422.447 790.397 424.338 787.794L424.338 728.794Z" fill="url(#paint72_linear_33_1890)"/>
<path d="M522.48 741.176C531.663 741.176 541.384 736.223 546.782 728.794L546.782 787.794C541.384 795.223 531.663 800.176 522.48 800.176L522.48 741.176Z" fill="url(#paint73_linear_33_1890)"/>
<path d="M421.528 735.587C421.528 739.087 424.683 741.176 430.648 741.176L430.648 800.176C424.683 800.176 421.528 798.087 421.528 794.587L421.528 735.587Z" fill="url(#paint74_linear_33_1890)"/>
<path d="M430.647 741.176H522.48L522.48 800.176H430.647L430.647 741.176Z" fill="url(#paint75_linear_33_1890)"/>
<path d="M502.03 642.926H593.862C598.227 642.926 600.934 644.1 601.95 646.094C602.967 648.089 602.325 650.969 599.759 654.5L545.782 728.793C543.217 732.324 539.674 735.204 535.759 737.199C531.844 739.194 527.432 740.367 523.068 740.367H431.236C426.871 740.367 424.164 739.194 423.148 737.199C422.131 735.204 422.773 732.324 425.339 728.793L479.316 654.5C481.881 650.969 485.424 648.089 489.339 646.094C493.254 644.1 497.666 642.926 502.03 642.926Z" fill="#0C64D3" stroke="#137DFF" stroke-width="2" stroke-miterlimit="1"/>
<path d="M109.118 589.677C114.515 582.248 124.236 577.295 133.419 577.295H225.252C231.216 577.295 234.371 579.384 234.372 582.884C234.372 584.773 233.453 587.073 231.561 589.677L177.583 663.971C172.185 671.401 162.465 676.354 153.281 676.354H61.4489C55.4847 676.354 52.3295 674.265 52.3291 670.765C52.3289 668.876 53.2476 666.576 55.1398 663.971L109.118 589.677Z" fill="url(#paint76_linear_33_1890)"/>
<path d="M225.252 554.295H133.419L133.419 577.295H225.252L225.252 554.295Z" fill="url(#paint77_linear_33_1890)"/>
<path d="M234.372 559.884C234.371 556.384 231.216 554.295 225.252 554.295L225.252 577.295C231.216 577.295 234.371 579.384 234.372 582.884L234.372 559.884Z" fill="url(#paint78_linear_33_1890)"/>
<path d="M133.419 554.295C124.236 554.295 114.515 559.248 109.118 566.677L109.118 589.677C114.515 582.248 124.236 577.295 133.419 577.295L133.419 554.295Z" fill="url(#paint79_linear_33_1890)"/>
<path d="M231.561 566.677C233.453 564.074 234.371 561.774 234.372 559.885L234.372 582.884C234.372 584.773 233.453 587.073 231.561 589.677L231.561 566.677Z" fill="url(#paint80_linear_33_1890)"/>
<path d="M109.117 566.677L55.1396 640.971L55.1396 663.971L109.117 589.677L109.117 566.677Z" fill="url(#paint81_linear_33_1890)"/>
<path d="M177.583 640.971L231.561 566.677L231.561 589.677L177.583 663.971L177.583 640.971Z" fill="url(#paint82_linear_33_1890)"/>
<path d="M55.1398 640.971C53.2476 643.576 52.3289 645.876 52.3291 647.765L52.3291 670.763C52.3293 668.875 53.2481 666.575 55.1398 663.971L55.1398 640.971Z" fill="url(#paint83_linear_33_1890)"/>
<path d="M153.281 653.354C162.465 653.354 172.185 648.401 177.583 640.971L177.583 663.971C172.185 671.401 162.465 676.354 153.281 676.354L153.281 653.354Z" fill="url(#paint84_linear_33_1890)"/>
<path d="M52.3291 647.765C52.3295 651.265 55.4847 653.354 61.4489 653.354L61.4489 676.354C55.4847 676.354 52.3295 674.265 52.3291 670.765L52.3291 647.765Z" fill="url(#paint85_linear_33_1890)"/>
<path d="M61.4487 653.354H153.281L153.281 676.354H61.4487L61.4487 653.354Z" fill="url(#paint86_linear_33_1890)"/>
<path d="M132.832 555.104H224.664C229.028 555.104 231.735 556.277 232.752 558.272C233.768 560.267 233.126 563.147 230.561 566.677L176.583 640.971C174.018 644.502 170.475 647.382 166.56 649.377C162.645 651.371 158.233 652.545 153.869 652.545H62.0368C57.6724 652.545 54.9653 651.371 53.9489 649.377C52.9326 647.382 53.5745 644.502 56.1398 640.971L110.117 566.677C112.683 563.147 116.225 560.267 120.14 558.272C124.055 556.277 128.467 555.104 132.832 555.104Z" fill="#0C64D3" stroke="#137DFF" stroke-width="2" stroke-miterlimit="1"/>
<path d="M172.208 713.5C177.606 706.07 187.326 701.117 196.51 701.117H288.342C294.306 701.117 297.462 703.206 297.462 706.706C297.462 708.595 296.543 710.895 294.651 713.5L240.674 787.794C235.276 795.223 225.555 800.176 216.372 800.176H124.539C118.575 800.176 115.42 798.087 115.419 794.587C115.419 792.698 116.338 790.398 118.23 787.794L172.208 713.5Z" fill="url(#paint87_linear_33_1890)"/>
<path d="M288.342 659.117H196.51L196.51 701.117H288.342L288.342 659.117Z" fill="url(#paint88_linear_33_1890)"/>
<path d="M297.462 664.706C297.462 661.206 294.306 659.117 288.342 659.117L288.342 701.117C294.306 701.117 297.462 703.206 297.462 706.706L297.462 664.706Z" fill="url(#paint89_linear_33_1890)"/>
<path d="M196.51 659.117C187.326 659.117 177.606 664.07 172.208 671.5L172.208 713.5C177.606 706.07 187.326 701.117 196.51 701.117L196.51 659.117Z" fill="url(#paint90_linear_33_1890)"/>
<path d="M294.651 671.5C296.543 668.896 297.462 666.596 297.462 664.708L297.462 706.706C297.462 708.595 296.543 710.895 294.651 713.5L294.651 671.5Z" fill="url(#paint91_linear_33_1890)"/>
<path d="M172.208 671.5L118.23 745.794L118.23 787.794L172.208 713.5L172.208 671.5Z" fill="url(#paint92_linear_33_1890)"/>
<path d="M240.673 745.794L294.651 671.5L294.651 713.5L240.673 787.794L240.673 745.794Z" fill="url(#paint93_linear_33_1890)"/>
<path d="M118.23 745.794C116.338 748.398 115.419 750.698 115.419 752.587L115.419 794.586C115.42 792.697 116.338 790.397 118.23 787.794L118.23 745.794Z" fill="url(#paint94_linear_33_1890)"/>
<path d="M216.372 758.176C225.555 758.176 235.276 753.223 240.673 745.794L240.673 787.794C235.276 795.223 225.555 800.176 216.372 800.176L216.372 758.176Z" fill="url(#paint95_linear_33_1890)"/>
<path d="M115.419 752.587C115.42 756.087 118.575 758.176 124.539 758.176L124.539 800.176C118.575 800.176 115.42 798.087 115.419 794.587L115.419 752.587Z" fill="url(#paint96_linear_33_1890)"/>
<path d="M124.539 758.176H216.372L216.372 800.176H124.539L124.539 758.176Z" fill="url(#paint97_linear_33_1890)"/>
<path d="M195.922 659.926H287.754C292.118 659.926 294.825 661.1 295.842 663.094C296.858 665.089 296.216 667.969 293.651 671.5L239.674 745.793C237.108 749.324 233.566 752.204 229.651 754.199C225.736 756.194 221.324 757.367 216.959 757.367H125.127C120.763 757.367 118.056 756.194 117.039 754.199C116.023 752.204 116.665 749.324 119.23 745.793L173.208 671.5C175.773 667.969 179.316 665.089 183.231 663.094C187.146 661.1 191.558 659.926 195.922 659.926Z" fill="#0C64D3" stroke="#137DFF" stroke-width="2" stroke-miterlimit="1"/>
<path d="M235.298 837.324C240.696 829.894 250.416 824.941 259.6 824.941H351.432C357.396 824.941 360.551 827.031 360.552 830.531C360.552 832.42 359.633 834.719 357.741 837.324L303.763 911.618C298.366 919.047 288.645 924 279.462 924H187.629C181.665 924 178.51 921.911 178.509 918.411C178.509 916.522 179.428 914.222 181.32 911.618L235.298 837.324Z" fill="url(#paint98_linear_33_1890)"/>
<path d="M351.432 782.941H259.6L259.6 824.941H351.432L351.432 782.941Z" fill="url(#paint99_linear_33_1890)"/>
<path d="M360.552 788.531C360.551 785.031 357.396 782.941 351.432 782.941L351.432 824.941C357.396 824.941 360.551 827.031 360.552 830.531L360.552 788.531Z" fill="url(#paint100_linear_33_1890)"/>
<path d="M259.6 782.941C250.416 782.941 240.696 787.894 235.298 795.324L235.298 837.324C240.696 829.894 250.416 824.941 259.6 824.941L259.6 782.941Z" fill="url(#paint101_linear_33_1890)"/>
<path d="M357.741 795.324C359.633 792.72 360.552 790.421 360.552 788.532L360.552 830.531C360.552 832.42 359.633 834.72 357.741 837.324L357.741 795.324Z" fill="url(#paint102_linear_33_1890)"/>
<path d="M235.298 795.324L181.32 869.618L181.32 911.618L235.298 837.324L235.298 795.324Z" fill="url(#paint103_linear_33_1890)"/>
<path d="M303.763 869.618L357.741 795.324L357.741 837.324L303.763 911.618L303.763 869.618Z" fill="url(#paint104_linear_33_1890)"/>
<path d="M181.32 869.618C179.428 872.222 178.509 874.522 178.509 876.411L178.509 918.41C178.51 916.521 179.428 914.222 181.32 911.618L181.32 869.618Z" fill="url(#paint105_linear_33_1890)"/>
<path d="M279.461 882C288.645 882 298.365 877.047 303.763 869.618L303.763 911.618C298.365 919.047 288.645 924 279.461 924L279.461 882Z" fill="url(#paint106_linear_33_1890)"/>
<path d="M178.509 876.411C178.51 879.911 181.665 882 187.629 882L187.629 924C181.665 924 178.51 921.911 178.509 918.411L178.509 876.411Z" fill="url(#paint107_linear_33_1890)"/>
<path d="M187.629 882H279.461L279.461 924H187.629L187.629 882Z" fill="url(#paint108_linear_33_1890)"/>
<path d="M259.012 783.75H350.844C355.208 783.75 357.915 784.924 358.932 786.919C359.948 788.913 359.306 791.793 356.741 795.324L302.763 869.618C300.198 873.148 296.655 876.028 292.74 878.023C288.825 880.018 284.413 881.191 280.049 881.191H188.217C183.853 881.191 181.146 880.018 180.129 878.023C179.113 876.028 179.755 873.148 182.32 869.618L236.298 795.324C238.863 791.793 242.405 788.913 246.32 786.919C250.235 784.924 254.647 783.75 259.012 783.75Z" fill="#0C64D3" stroke="#137DFF" stroke-width="2" stroke-miterlimit="1"/>
<path d="M-17.0621 342.029C-11.6643 334.6 -1.94362 329.647 7.23964 329.647H99.0722C105.036 329.647 108.192 331.736 108.192 335.236C108.192 337.125 107.273 339.425 105.381 342.029L51.4035 416.323C46.0057 423.753 36.285 428.706 27.1018 428.706H-64.7308C-70.695 428.706 -73.8502 426.616 -73.8506 423.116C-73.8508 421.227 -72.932 418.927 -71.0399 416.323L-17.0621 342.029Z" fill="url(#paint109_linear_33_1890)"/>
<path d="M99.0723 306.647H7.23975L7.23975 329.647H99.0723L99.0723 306.647Z" fill="url(#paint110_linear_33_1890)"/>
<path d="M108.192 312.236C108.192 308.736 105.036 306.647 99.0723 306.647L99.0723 329.647C105.036 329.647 108.192 331.736 108.192 335.236L108.192 312.236Z" fill="url(#paint111_linear_33_1890)"/>
<path d="M7.23972 306.647C-1.94354 306.647 -11.6642 311.6 -17.062 319.029L-17.062 342.029C-11.6642 334.6 -1.94354 329.647 7.23972 329.647L7.23972 306.647Z" fill="url(#paint112_linear_33_1890)"/>
<path d="M105.381 319.029C107.273 316.425 108.192 314.126 108.192 312.237L108.192 335.236C108.192 337.125 107.273 339.425 105.381 342.029L105.381 319.029Z" fill="url(#paint113_linear_33_1890)"/>
<path d="M51.4033 393.323L105.381 319.029L105.381 342.029L51.4033 416.323L51.4033 393.323Z" fill="url(#paint114_linear_33_1890)"/>
<path d="M27.1016 405.706C36.2848 405.706 46.0055 400.753 51.4033 393.323L51.4033 416.323C46.0055 423.753 36.2848 428.706 27.1016 428.706L27.1016 405.706Z" fill="url(#paint115_linear_33_1890)"/>
<path d="M-64.731 405.706H27.1016L27.1016 428.706H-64.731L-64.731 405.706Z" fill="url(#paint116_linear_33_1890)"/>
<path d="M6.65196 307.456H98.484C102.848 307.456 105.555 308.629 106.572 310.624C107.588 312.619 106.946 315.498 104.381 319.029L50.4035 393.323C47.8382 396.854 44.2955 399.734 40.3806 401.728C36.4656 403.723 32.0535 404.896 27.6892 404.896H-64.1429C-68.5073 404.896 -71.2144 403.723 -72.2307 401.728C-73.2471 399.734 -72.6052 396.854 -70.0399 393.323L-16.0624 319.029C-13.497 315.498 -9.95442 312.619 -6.03946 310.624C-2.12451 308.629 2.28758 307.456 6.65196 307.456Z" fill="#0C64D3" stroke="#137DFF" stroke-width="2" stroke-miterlimit="1"/>
<path d="M154.992 105.216C159.715 98.7157 168.986 94.3818 178.17 94.3818H270.002C276.278 94.3818 279.654 96.4062 279.655 99.763C279.655 101.318 278.931 103.159 277.436 105.216L230.205 170.224C225.482 176.724 216.211 181.058 207.028 181.058H115.195C108.919 181.058 105.543 179.034 105.543 175.677C105.543 174.122 106.267 172.282 107.762 170.224L154.992 105.216Z" fill="url(#paint117_linear_33_1890)"/>
<path d="M270.002 70.3818H178.169L178.169 94.3818H270.002L270.002 70.3818Z" fill="url(#paint118_linear_33_1890)"/>
<path d="M279.654 75.763C279.654 72.4062 276.278 70.3818 270.002 70.3818L270.002 94.3818C276.278 94.3818 279.654 96.4062 279.654 99.763L279.654 75.763Z" fill="url(#paint119_linear_33_1890)"/>
<path d="M178.169 70.3818C168.986 70.3818 159.715 74.7157 154.992 81.2164L154.992 105.216C159.715 98.7157 168.986 94.3818 178.169 94.3818L178.169 70.3818Z" fill="url(#paint120_linear_33_1890)"/>
<path d="M277.436 81.2163C278.93 79.1591 279.654 77.3189 279.654 75.7644L279.654 99.7629C279.655 101.318 278.931 103.158 277.436 105.216L277.436 81.2163Z" fill="url(#paint121_linear_33_1890)"/>
<path d="M154.992 81.2163L107.762 146.224L107.762 170.224L154.992 105.216L154.992 81.2163Z" fill="url(#paint122_linear_33_1890)"/>
<path d="M230.205 146.224L277.436 81.2163L277.436 105.216L230.205 170.224L230.205 146.224Z" fill="url(#paint123_linear_33_1890)"/>
<path d="M107.762 146.224C106.267 148.281 105.543 150.122 105.543 151.677L105.543 175.676C105.543 174.121 106.267 172.281 107.762 170.224L107.762 146.224Z" fill="url(#paint124_linear_33_1890)"/>
<path d="M207.028 157.058C216.211 157.058 225.482 152.724 230.205 146.224L230.205 170.224C225.482 176.724 216.211 181.058 207.028 181.058L207.028 157.058Z" fill="url(#paint125_linear_33_1890)"/>
<path d="M105.543 151.677C105.543 155.034 108.919 157.058 115.195 157.058L115.195 181.058C108.919 181.058 105.543 179.034 105.543 175.677L105.543 151.677Z" fill="url(#paint126_linear_33_1890)"/>
<path d="M115.195 157.058H207.028L207.028 181.058H115.195L115.195 157.058Z" fill="url(#paint127_linear_33_1890)"/>
<path d="M177.582 71.1909H269.414C273.815 71.1909 276.638 72.2284 277.833 73.9703C279.022 75.7036 278.638 78.1854 276.436 81.2167L229.205 146.224C227.003 149.255 223.781 151.736 220.074 153.47C216.347 155.211 212.017 156.249 207.616 156.249H115.784C111.383 156.249 108.56 155.211 107.365 153.47C106.176 151.736 106.56 149.255 108.762 146.224L155.992 81.2167C158.195 78.1855 161.417 75.7036 165.124 73.9703C168.85 72.2284 173.181 71.1909 177.582 71.1909Z" fill="#0C64D3" stroke="#137DFF" stroke-width="2" stroke-miterlimit="1"/>
<path d="M381.139 4.61098C385.188 -0.961075 394.009 -4.67578 403.192 -4.67578H495.025C501.637 -4.67578 505.263 -2.74971 505.264 0.408988C505.264 1.63695 504.716 3.05119 503.583 4.61098L463.099 60.3316C459.051 65.9036 450.23 69.6183 441.047 69.6183H349.214C342.602 69.6183 338.976 67.6923 338.975 64.5336C338.975 63.3056 339.523 61.8914 340.656 60.3316L381.139 4.61098Z" fill="url(#paint128_linear_33_1890)"/>
<path d="M505.263 -20.591C505.263 -23.7497 501.637 -25.6758 495.024 -25.6758L495.024 -4.67578C501.637 -4.67578 505.263 -2.74971 505.263 0.408989L505.263 -20.591Z" fill="url(#paint129_linear_33_1890)"/>
<path d="M403.192 -25.6758C394.009 -25.6758 385.187 -21.9611 381.139 -16.389L381.139 4.61098C385.187 -0.961075 394.009 -4.67578 403.192 -4.67578L403.192 -25.6758Z" fill="url(#paint130_linear_33_1890)"/>
<path d="M503.583 -16.3891C504.715 -17.9484 505.263 -19.3622 505.263 -20.5899L505.263 0.408936C505.264 1.63689 504.716 3.05114 503.583 4.61093L503.583 -16.3891Z" fill="url(#paint131_linear_33_1890)"/>
<path d="M381.139 -16.3889L340.656 39.3317L340.656 60.3317L381.139 4.61108L381.139 -16.3889Z" fill="url(#paint132_linear_33_1890)"/>
<path d="M463.1 39.3317L503.583 -16.3889L503.583 4.61108L463.1 60.3317L463.1 39.3317Z" fill="url(#paint133_linear_33_1890)"/>
<path d="M340.656 39.3315C339.523 40.8913 338.975 42.3056 338.975 43.5335L338.975 64.5324C338.975 63.3047 339.523 61.8909 340.656 60.3315L340.656 39.3315Z" fill="url(#paint134_linear_33_1890)"/>
<path d="M441.047 48.6183C450.23 48.6183 459.051 44.9036 463.1 39.3315L463.1 60.3315C459.051 65.9036 450.23 69.6183 441.047 69.6183L441.047 48.6183Z" fill="url(#paint135_linear_33_1890)"/>
<path d="M338.975 43.5334C338.976 46.6921 342.602 48.6182 349.214 48.6182L349.214 69.6182C342.602 69.6182 338.976 67.6921 338.975 64.5334L338.975 43.5334Z" fill="url(#paint136_linear_33_1890)"/>
<path d="M349.214 48.6184H441.047L441.047 69.6184H349.214L349.214 48.6184Z" fill="url(#paint137_linear_33_1890)"/>
<path d="M402.605 -24.8668L494.437 -24.8668C498.873 -24.8668 501.819 -23.9684 503.196 -22.4745C504.559 -20.9946 504.413 -18.9078 502.583 -16.3887L462.099 39.3316C460.269 41.8507 457.383 43.9375 453.869 45.4174C450.322 46.9113 446.07 47.8097 441.634 47.8097H349.802C345.366 47.8097 342.42 46.9113 341.043 45.4174C339.679 43.9375 339.826 41.8507 341.656 39.3316L382.139 -16.3887C383.969 -18.9077 386.856 -20.9946 390.369 -22.4745C393.917 -23.9684 398.168 -24.8668 402.605 -24.8668Z" fill="#0C64D3" stroke="#137DFF" stroke-width="2" stroke-miterlimit="1"/>
<g style="mix-blend-mode:plus-lighter" opacity="0.5">
<rect width="1060" height="900" fill="url(#paint138_linear_33_1890)"/>
</g>
</g>
<defs>
<linearGradient id="paint0_linear_33_1890" x1="0" y1="0" x2="1060" y2="900" gradientUnits="userSpaceOnUse">
<stop stop-color="#0D0047"/>
<stop offset="1" stop-color="#0050B1"/>
</linearGradient>
<linearGradient id="paint1_linear_33_1890" x1="692.478" y1="453.471" x2="692.478" y2="552.53" gradientUnits="userSpaceOnUse">
<stop stop-color="#0050B1"/>
<stop offset="1" stop-color="#17007E"/>
</linearGradient>
<linearGradient id="paint2_linear_33_1890" x1="728.463" y1="349.471" x2="728.463" y2="453.471" gradientUnits="userSpaceOnUse">
<stop stop-color="#0050B1"/>
<stop offset="1" stop-color="#17007E"/>
</linearGradient>
<linearGradient id="paint3_linear_33_1890" x1="778.939" y1="349.471" x2="778.939" y2="459.06" gradientUnits="userSpaceOnUse">
<stop stop-color="#0050B1"/>
<stop offset="1" stop-color="#17007E"/>
</linearGradient>
<linearGradient id="paint4_linear_33_1890" x1="670.396" y1="349.471" x2="670.396" y2="465.853" gradientUnits="userSpaceOnUse">
<stop stop-color="#0050B1"/>
<stop offset="1" stop-color="#17007E"/>
</linearGradient>
<linearGradient id="paint5_linear_33_1890" x1="782.094" y1="355.06" x2="782.094" y2="465.853" gradientUnits="userSpaceOnUse">
<stop stop-color="#0050B1"/>
<stop offset="1" stop-color="#17007E"/>
</linearGradient>
<linearGradient id="paint6_linear_33_1890" x1="631.256" y1="361.853" x2="631.256" y2="540.147" gradientUnits="userSpaceOnUse">
<stop stop-color="#0050B1"/>
<stop offset="1" stop-color="#17007E"/>
</linearGradient>
<linearGradient id="paint7_linear_33_1890" x1="753.699" y1="361.853" x2="753.699" y2="540.147" gradientUnits="userSpaceOnUse">
<stop stop-color="#0050B1"/>
<stop offset="1" stop-color="#17007E"/>
</linearGradient>
<linearGradient id="paint8_linear_33_1890" x1="602.862" y1="436.147" x2="602.862" y2="546.941" gradientUnits="userSpaceOnUse">
<stop stop-color="#0050B1"/>
<stop offset="1" stop-color="#17007E"/>
</linearGradient>
<linearGradient id="paint9_linear_33_1890" x1="714.56" y1="436.147" x2="714.56" y2="552.53" gradientUnits="userSpaceOnUse">
<stop stop-color="#0050B1"/>
<stop offset="1" stop-color="#17007E"/>
</linearGradient>
<linearGradient id="paint10_linear_33_1890" x1="606.016" y1="442.941" x2="606.016" y2="552.53" gradientUnits="userSpaceOnUse">
<stop stop-color="#0050B1"/>
<stop offset="1" stop-color="#17007E"/>
</linearGradient>
<linearGradient id="paint11_linear_33_1890" x1="656.492" y1="448.53" x2="656.492" y2="552.53" gradientUnits="userSpaceOnUse">
<stop stop-color="#0050B1"/>
<stop offset="1" stop-color="#17007E"/>
</linearGradient>
<linearGradient id="paint12_linear_33_1890" x1="845.207" y1="453" x2="845.207" y2="552.059" gradientUnits="userSpaceOnUse">
<stop stop-color="#0050B1"/>
<stop offset="1" stop-color="#17007E"/>
</linearGradient>
<linearGradient id="paint13_linear_33_1890" x1="881.192" y1="305" x2="881.192" y2="453" gradientUnits="userSpaceOnUse">
<stop stop-color="#0050B1"/>
<stop offset="1" stop-color="#17007E"/>
</linearGradient>
<linearGradient id="paint14_linear_33_1890" x1="931.668" y1="305" x2="931.668" y2="458.589" gradientUnits="userSpaceOnUse">
<stop stop-color="#0050B1"/>
<stop offset="1" stop-color="#17007E"/>
</linearGradient>
<linearGradient id="paint15_linear_33_1890" x1="823.125" y1="305" x2="823.125" y2="465.382" gradientUnits="userSpaceOnUse">
<stop stop-color="#0050B1"/>
<stop offset="1" stop-color="#17007E"/>
</linearGradient>
<linearGradient id="paint16_linear_33_1890" x1="934.823" y1="310.589" x2="934.823" y2="465.382" gradientUnits="userSpaceOnUse">
<stop stop-color="#0050B1"/>
<stop offset="1" stop-color="#17007E"/>
</linearGradient>
<linearGradient id="paint17_linear_33_1890" x1="783.985" y1="317.382" x2="783.985" y2="539.676" gradientUnits="userSpaceOnUse">
<stop stop-color="#0050B1"/>
<stop offset="1" stop-color="#17007E"/>
</linearGradient>
<linearGradient id="paint18_linear_33_1890" x1="906.428" y1="317.382" x2="906.428" y2="539.676" gradientUnits="userSpaceOnUse">
<stop stop-color="#0050B1"/>
<stop offset="1" stop-color="#17007E"/>
</linearGradient>
<linearGradient id="paint19_linear_33_1890" x1="755.591" y1="391.677" x2="755.591" y2="546.47" gradientUnits="userSpaceOnUse">
<stop stop-color="#0050B1"/>
<stop offset="1" stop-color="#17007E"/>
</linearGradient>
<linearGradient id="paint20_linear_33_1890" x1="867.289" y1="391.677" x2="867.289" y2="552.059" gradientUnits="userSpaceOnUse">
<stop stop-color="#0050B1"/>
<stop offset="1" stop-color="#17007E"/>
</linearGradient>
<linearGradient id="paint21_linear_33_1890" x1="758.745" y1="398.47" x2="758.745" y2="552.059" gradientUnits="userSpaceOnUse">
<stop stop-color="#0050B1"/>
<stop offset="1" stop-color="#17007E"/>
</linearGradient>
<linearGradient id="paint22_linear_33_1890" x1="809.221" y1="404.059" x2="809.221" y2="552.059" gradientUnits="userSpaceOnUse">
<stop stop-color="#0050B1"/>
<stop offset="1" stop-color="#17007E"/>
</linearGradient>
<linearGradient id="paint23_linear_33_1890" x1="998.546" y1="453.471" x2="998.546" y2="552.53" gradientUnits="userSpaceOnUse">
<stop stop-color="#0050B1"/>
<stop offset="1" stop-color="#17007E"/>
</linearGradient>
<linearGradient id="paint24_linear_33_1890" x1="1034.53" y1="208.471" x2="1034.53" y2="453.471" gradientUnits="userSpaceOnUse">
<stop stop-color="#0050B1"/>
<stop offset="1" stop-color="#17007E"/>
</linearGradient>
<linearGradient id="paint25_linear_33_1890" x1="976.464" y1="208.471" x2="976.464" y2="465.853" gradientUnits="userSpaceOnUse">
<stop stop-color="#0050B1"/>
<stop offset="1" stop-color="#17007E"/>
</linearGradient>
<linearGradient id="paint26_linear_33_1890" x1="937.324" y1="220.853" x2="937.324" y2="540.147" gradientUnits="userSpaceOnUse">
<stop stop-color="#0050B1"/>
<stop offset="1" stop-color="#17007E"/>
</linearGradient>
<linearGradient id="paint27_linear_33_1890" x1="1059.77" y1="220.853" x2="1059.77" y2="540.147" gradientUnits="userSpaceOnUse">
<stop stop-color="#0050B1"/>
<stop offset="1" stop-color="#17007E"/>
</linearGradient>
<linearGradient id="paint28_linear_33_1890" x1="908.93" y1="295.147" x2="908.93" y2="546.941" gradientUnits="userSpaceOnUse">
<stop stop-color="#0050B1"/>
<stop offset="1" stop-color="#17007E"/>
</linearGradient>
<linearGradient id="paint29_linear_33_1890" x1="1020.63" y1="295.147" x2="1020.63" y2="552.53" gradientUnits="userSpaceOnUse">
<stop stop-color="#0050B1"/>
<stop offset="1" stop-color="#17007E"/>
</linearGradient>
<linearGradient id="paint30_linear_33_1890" x1="912.084" y1="301.941" x2="912.084" y2="552.53" gradientUnits="userSpaceOnUse">
<stop stop-color="#0050B1"/>
<stop offset="1" stop-color="#17007E"/>
</linearGradient>
<linearGradient id="paint31_linear_33_1890" x1="962.56" y1="307.53" x2="962.56" y2="552.53" gradientUnits="userSpaceOnUse">
<stop stop-color="#0050B1"/>
<stop offset="1" stop-color="#17007E"/>
</linearGradient>
<linearGradient id="paint32_linear_33_1890" x1="755.568" y1="577.295" x2="755.568" y2="676.354" gradientUnits="userSpaceOnUse">
<stop stop-color="#0050B1"/>
<stop offset="1" stop-color="#17007E"/>
</linearGradient>
<linearGradient id="paint33_linear_33_1890" x1="791.553" y1="502.295" x2="791.553" y2="577.295" gradientUnits="userSpaceOnUse">
<stop stop-color="#0050B1"/>
<stop offset="1" stop-color="#17007E"/>
</linearGradient>
<linearGradient id="paint34_linear_33_1890" x1="842.029" y1="502.295" x2="842.029" y2="582.884" gradientUnits="userSpaceOnUse">
<stop stop-color="#0050B1"/>
<stop offset="1" stop-color="#17007E"/>
</linearGradient>
<linearGradient id="paint35_linear_33_1890" x1="733.486" y1="502.295" x2="733.486" y2="589.677" gradientUnits="userSpaceOnUse">
<stop stop-color="#0050B1"/>
<stop offset="1" stop-color="#17007E"/>
</linearGradient>
<linearGradient id="paint36_linear_33_1890" x1="845.184" y1="507.884" x2="845.184" y2="589.677" gradientUnits="userSpaceOnUse">
<stop stop-color="#0050B1"/>
<stop offset="1" stop-color="#17007E"/>
</linearGradient>
<linearGradient id="paint37_linear_33_1890" x1="694.346" y1="514.677" x2="694.346" y2="663.971" gradientUnits="userSpaceOnUse">
<stop stop-color="#0050B1"/>
<stop offset="1" stop-color="#17007E"/>
</linearGradient>
<linearGradient id="paint38_linear_33_1890" x1="816.789" y1="514.677" x2="816.789" y2="663.971" gradientUnits="userSpaceOnUse">
<stop stop-color="#0050B1"/>
<stop offset="1" stop-color="#17007E"/>
</linearGradient>
<linearGradient id="paint39_linear_33_1890" x1="665.952" y1="588.971" x2="665.952" y2="670.765" gradientUnits="userSpaceOnUse">
<stop stop-color="#0050B1"/>
<stop offset="1" stop-color="#17007E"/>
</linearGradient>
<linearGradient id="paint40_linear_33_1890" x1="777.649" y1="588.971" x2="777.649" y2="676.354" gradientUnits="userSpaceOnUse">
<stop stop-color="#0050B1"/>
<stop offset="1" stop-color="#17007E"/>
</linearGradient>
<linearGradient id="paint41_linear_33_1890" x1="669.106" y1="595.765" x2="669.106" y2="676.354" gradientUnits="userSpaceOnUse">
<stop stop-color="#0050B1"/>
<stop offset="1" stop-color="#17007E"/>
</linearGradient>
<linearGradient id="paint42_linear_33_1890" x1="719.582" y1="601.354" x2="719.582" y2="676.354" gradientUnits="userSpaceOnUse">
<stop stop-color="#0050B1"/>
<stop offset="1" stop-color="#17007E"/>
</linearGradient>
<linearGradient id="paint43_linear_33_1890" x1="908.622" y1="577.295" x2="908.622" y2="676.354" gradientUnits="userSpaceOnUse">
<stop stop-color="#0050B1"/>
<stop offset="1" stop-color="#17007E"/>
</linearGradient>
<linearGradient id="paint44_linear_33_1890" x1="944.607" y1="461.295" x2="944.607" y2="577.295" gradientUnits="userSpaceOnUse">
<stop stop-color="#0050B1"/>
<stop offset="1" stop-color="#17007E"/>
</linearGradient>
<linearGradient id="paint45_linear_33_1890" x1="995.083" y1="461.295" x2="995.083" y2="582.884" gradientUnits="userSpaceOnUse">
<stop stop-color="#0050B1"/>
<stop offset="1" stop-color="#17007E"/>
</linearGradient>
<linearGradient id="paint46_linear_33_1890" x1="886.54" y1="461.295" x2="886.54" y2="589.677" gradientUnits="userSpaceOnUse">
<stop stop-color="#0050B1"/>
<stop offset="1" stop-color="#17007E"/>
</linearGradient>
<linearGradient id="paint47_linear_33_1890" x1="998.238" y1="466.884" x2="998.238" y2="589.677" gradientUnits="userSpaceOnUse">
<stop stop-color="#0050B1"/>
<stop offset="1" stop-color="#17007E"/>
</linearGradient>
<linearGradient id="paint48_linear_33_1890" x1="847.4" y1="473.677" x2="847.4" y2="663.971" gradientUnits="userSpaceOnUse">
<stop stop-color="#0050B1"/>
<stop offset="1" stop-color="#17007E"/>
</linearGradient>
<linearGradient id="paint49_linear_33_1890" x1="969.843" y1="473.677" x2="969.843" y2="663.971" gradientUnits="userSpaceOnUse">
<stop stop-color="#0050B1"/>
<stop offset="1" stop-color="#17007E"/>
</linearGradient>
<linearGradient id="paint50_linear_33_1890" x1="819.006" y1="547.971" x2="819.006" y2="670.765" gradientUnits="userSpaceOnUse">
<stop stop-color="#0050B1"/>
<stop offset="1" stop-color="#17007E"/>
</linearGradient>
<linearGradient id="paint51_linear_33_1890" x1="930.704" y1="547.971" x2="930.704" y2="676.354" gradientUnits="userSpaceOnUse">
<stop stop-color="#0050B1"/>
<stop offset="1" stop-color="#17007E"/>
</linearGradient>
<linearGradient id="paint52_linear_33_1890" x1="822.16" y1="554.765" x2="822.16" y2="676.354" gradientUnits="userSpaceOnUse">
<stop stop-color="#0050B1"/>
<stop offset="1" stop-color="#17007E"/>
</linearGradient>
<linearGradient id="paint53_linear_33_1890" x1="872.637" y1="560.354" x2="872.637" y2="676.354" gradientUnits="userSpaceOnUse">
<stop stop-color="#0050B1"/>
<stop offset="1" stop-color="#17007E"/>
</linearGradient>
<linearGradient id="paint54_linear_33_1890" x1="818.658" y1="701.117" x2="818.658" y2="800.176" gradientUnits="userSpaceOnUse">
<stop stop-color="#0050B1"/>
<stop offset="1" stop-color="#17007E"/>
</linearGradient>
<linearGradient id="paint55_linear_33_1890" x1="854.643" y1="642.117" x2="854.643" y2="701.117" gradientUnits="userSpaceOnUse">
<stop stop-color="#0050B1"/>
<stop offset="1" stop-color="#17007E"/>
</linearGradient>
<linearGradient id="paint56_linear_33_1890" x1="905.119" y1="642.117" x2="905.119" y2="706.706" gradientUnits="userSpaceOnUse">
<stop stop-color="#0050B1"/>
<stop offset="1" stop-color="#17007E"/>
</linearGradient>
<linearGradient id="paint57_linear_33_1890" x1="796.576" y1="642.117" x2="796.576" y2="713.5" gradientUnits="userSpaceOnUse">
<stop stop-color="#0050B1"/>
<stop offset="1" stop-color="#17007E"/>
</linearGradient>
<linearGradient id="paint58_linear_33_1890" x1="908.273" y1="647.706" x2="908.273" y2="713.5" gradientUnits="userSpaceOnUse">
<stop stop-color="#0050B1"/>
<stop offset="1" stop-color="#17007E"/>
</linearGradient>
<linearGradient id="paint59_linear_33_1890" x1="757.436" y1="654.5" x2="757.436" y2="787.794" gradientUnits="userSpaceOnUse">
<stop stop-color="#0050B1"/>
<stop offset="1" stop-color="#17007E"/>
</linearGradient>
<linearGradient id="paint60_linear_33_1890" x1="879.879" y1="654.5" x2="879.879" y2="787.794" gradientUnits="userSpaceOnUse">
<stop stop-color="#0050B1"/>
<stop offset="1" stop-color="#17007E"/>
</linearGradient>
<linearGradient id="paint61_linear_33_1890" x1="729.042" y1="728.794" x2="729.042" y2="794.587" gradientUnits="userSpaceOnUse">
<stop stop-color="#0050B1"/>
<stop offset="1" stop-color="#17007E"/>
</linearGradient>
<linearGradient id="paint62_linear_33_1890" x1="840.739" y1="728.794" x2="840.739" y2="800.176" gradientUnits="userSpaceOnUse">
<stop stop-color="#0050B1"/>
<stop offset="1" stop-color="#17007E"/>
</linearGradient>
<linearGradient id="paint63_linear_33_1890" x1="732.196" y1="735.587" x2="732.196" y2="800.176" gradientUnits="userSpaceOnUse">
<stop stop-color="#0050B1"/>
<stop offset="1" stop-color="#17007E"/>
</linearGradient>
<linearGradient id="paint64_linear_33_1890" x1="782.672" y1="741.176" x2="782.672" y2="800.176" gradientUnits="userSpaceOnUse">
<stop stop-color="#0050B1"/>
<stop offset="1" stop-color="#17007E"/>
</linearGradient>
<linearGradient id="paint65_linear_33_1890" x1="512.549" y1="701.117" x2="512.549" y2="800.176" gradientUnits="userSpaceOnUse">
<stop stop-color="#0050B1"/>
<stop offset="1" stop-color="#17007E"/>
</linearGradient>
<linearGradient id="paint66_linear_33_1890" x1="548.534" y1="642.117" x2="548.534" y2="701.117" gradientUnits="userSpaceOnUse">
<stop stop-color="#0050B1"/>
<stop offset="1" stop-color="#17007E"/>
</linearGradient>
<linearGradient id="paint67_linear_33_1890" x1="599.011" y1="642.117" x2="599.011" y2="706.706" gradientUnits="userSpaceOnUse">
<stop stop-color="#0050B1"/>
<stop offset="1" stop-color="#17007E"/>
</linearGradient>
<linearGradient id="paint68_linear_33_1890" x1="490.467" y1="642.117" x2="490.467" y2="713.5" gradientUnits="userSpaceOnUse">
<stop stop-color="#0050B1"/>
<stop offset="1" stop-color="#17007E"/>
</linearGradient>
<linearGradient id="paint69_linear_33_1890" x1="602.165" y1="647.706" x2="602.165" y2="713.5" gradientUnits="userSpaceOnUse">
<stop stop-color="#0050B1"/>
<stop offset="1" stop-color="#17007E"/>
</linearGradient>
<linearGradient id="paint70_linear_33_1890" x1="451.327" y1="654.5" x2="451.327" y2="787.794" gradientUnits="userSpaceOnUse">
<stop stop-color="#0050B1"/>
<stop offset="1" stop-color="#17007E"/>
</linearGradient>
<linearGradient id="paint71_linear_33_1890" x1="573.771" y1="654.5" x2="573.771" y2="787.794" gradientUnits="userSpaceOnUse">
<stop stop-color="#0050B1"/>
<stop offset="1" stop-color="#17007E"/>
</linearGradient>
<linearGradient id="paint72_linear_33_1890" x1="422.933" y1="728.794" x2="422.933" y2="794.587" gradientUnits="userSpaceOnUse">
<stop stop-color="#0050B1"/>
<stop offset="1" stop-color="#17007E"/>
</linearGradient>
<linearGradient id="paint73_linear_33_1890" x1="534.631" y1="728.794" x2="534.631" y2="800.176" gradientUnits="userSpaceOnUse">
<stop stop-color="#0050B1"/>
<stop offset="1" stop-color="#17007E"/>
</linearGradient>
<linearGradient id="paint74_linear_33_1890" x1="426.088" y1="735.587" x2="426.088" y2="800.176" gradientUnits="userSpaceOnUse">
<stop stop-color="#0050B1"/>
<stop offset="1" stop-color="#17007E"/>
</linearGradient>
<linearGradient id="paint75_linear_33_1890" x1="476.564" y1="741.176" x2="476.564" y2="800.176" gradientUnits="userSpaceOnUse">
<stop stop-color="#0050B1"/>
<stop offset="1" stop-color="#17007E"/>
</linearGradient>
<linearGradient id="paint76_linear_33_1890" x1="143.35" y1="577.295" x2="143.35" y2="676.354" gradientUnits="userSpaceOnUse">
<stop stop-color="#0050B1"/>
<stop offset="1" stop-color="#17007E"/>
</linearGradient>
<linearGradient id="paint77_linear_33_1890" x1="179.336" y1="554.295" x2="179.336" y2="577.295" gradientUnits="userSpaceOnUse">
<stop stop-color="#0050B1"/>
<stop offset="1" stop-color="#17007E"/>
</linearGradient>
<linearGradient id="paint78_linear_33_1890" x1="229.812" y1="554.295" x2="229.812" y2="582.884" gradientUnits="userSpaceOnUse">
<stop stop-color="#0050B1"/>
<stop offset="1" stop-color="#17007E"/>
</linearGradient>
<linearGradient id="paint79_linear_33_1890" x1="121.269" y1="554.295" x2="121.269" y2="589.677" gradientUnits="userSpaceOnUse">
<stop stop-color="#0050B1"/>
<stop offset="1" stop-color="#17007E"/>
</linearGradient>
<linearGradient id="paint80_linear_33_1890" x1="232.966" y1="559.884" x2="232.966" y2="589.677" gradientUnits="userSpaceOnUse">
<stop stop-color="#0050B1"/>
<stop offset="1" stop-color="#17007E"/>
</linearGradient>
<linearGradient id="paint81_linear_33_1890" x1="82.1286" y1="566.677" x2="82.1286" y2="663.971" gradientUnits="userSpaceOnUse">
<stop stop-color="#0050B1"/>
<stop offset="1" stop-color="#17007E"/>
</linearGradient>
<linearGradient id="paint82_linear_33_1890" x1="204.572" y1="566.677" x2="204.572" y2="663.971" gradientUnits="userSpaceOnUse">
<stop stop-color="#0050B1"/>
<stop offset="1" stop-color="#17007E"/>
</linearGradient>
<linearGradient id="paint83_linear_33_1890" x1="53.7344" y1="640.971" x2="53.7344" y2="670.765" gradientUnits="userSpaceOnUse">
<stop stop-color="#0050B1"/>
<stop offset="1" stop-color="#17007E"/>
</linearGradient>
<linearGradient id="paint84_linear_33_1890" x1="165.432" y1="640.971" x2="165.432" y2="676.354" gradientUnits="userSpaceOnUse">
<stop stop-color="#0050B1"/>
<stop offset="1" stop-color="#17007E"/>
</linearGradient>
<linearGradient id="paint85_linear_33_1890" x1="56.889" y1="647.765" x2="56.889" y2="676.354" gradientUnits="userSpaceOnUse">
<stop stop-color="#0050B1"/>
<stop offset="1" stop-color="#17007E"/>
</linearGradient>
<linearGradient id="paint86_linear_33_1890" x1="107.365" y1="653.354" x2="107.365" y2="676.354" gradientUnits="userSpaceOnUse">
<stop stop-color="#0050B1"/>
<stop offset="1" stop-color="#17007E"/>
</linearGradient>
<linearGradient id="paint87_linear_33_1890" x1="206.441" y1="701.117" x2="206.441" y2="800.176" gradientUnits="userSpaceOnUse">
<stop stop-color="#0050B1"/>
<stop offset="1" stop-color="#17007E"/>
</linearGradient>
<linearGradient id="paint88_linear_33_1890" x1="242.426" y1="659.117" x2="242.426" y2="701.117" gradientUnits="userSpaceOnUse">
<stop stop-color="#0050B1"/>
<stop offset="1" stop-color="#17007E"/>
</linearGradient>
<linearGradient id="paint89_linear_33_1890" x1="292.902" y1="659.117" x2="292.902" y2="706.706" gradientUnits="userSpaceOnUse">
<stop stop-color="#0050B1"/>
<stop offset="1" stop-color="#17007E"/>
</linearGradient>
<linearGradient id="paint90_linear_33_1890" x1="184.359" y1="659.117" x2="184.359" y2="713.5" gradientUnits="userSpaceOnUse">
<stop stop-color="#0050B1"/>
<stop offset="1" stop-color="#17007E"/>
</linearGradient>
<linearGradient id="paint91_linear_33_1890" x1="296.057" y1="664.706" x2="296.057" y2="713.5" gradientUnits="userSpaceOnUse">
<stop stop-color="#0050B1"/>
<stop offset="1" stop-color="#17007E"/>
</linearGradient>
<linearGradient id="paint92_linear_33_1890" x1="145.219" y1="671.5" x2="145.219" y2="787.794" gradientUnits="userSpaceOnUse">
<stop stop-color="#0050B1"/>
<stop offset="1" stop-color="#17007E"/>
</linearGradient>
<linearGradient id="paint93_linear_33_1890" x1="267.662" y1="671.5" x2="267.662" y2="787.794" gradientUnits="userSpaceOnUse">
<stop stop-color="#0050B1"/>
<stop offset="1" stop-color="#17007E"/>
</linearGradient>
<linearGradient id="paint94_linear_33_1890" x1="116.825" y1="745.794" x2="116.825" y2="794.587" gradientUnits="userSpaceOnUse">
<stop stop-color="#0050B1"/>
<stop offset="1" stop-color="#17007E"/>
</linearGradient>
<linearGradient id="paint95_linear_33_1890" x1="228.522" y1="745.794" x2="228.522" y2="800.176" gradientUnits="userSpaceOnUse">
<stop stop-color="#0050B1"/>
<stop offset="1" stop-color="#17007E"/>
</linearGradient>
<linearGradient id="paint96_linear_33_1890" x1="119.979" y1="752.587" x2="119.979" y2="800.176" gradientUnits="userSpaceOnUse">
<stop stop-color="#0050B1"/>
<stop offset="1" stop-color="#17007E"/>
</linearGradient>
<linearGradient id="paint97_linear_33_1890" x1="170.455" y1="758.176" x2="170.455" y2="800.176" gradientUnits="userSpaceOnUse">
<stop stop-color="#0050B1"/>
<stop offset="1" stop-color="#17007E"/>
</linearGradient>
<linearGradient id="paint98_linear_33_1890" x1="269.531" y1="824.941" x2="269.531" y2="924" gradientUnits="userSpaceOnUse">
<stop stop-color="#0050B1"/>
<stop offset="1" stop-color="#17007E"/>
</linearGradient>
<linearGradient id="paint99_linear_33_1890" x1="305.516" y1="782.941" x2="305.516" y2="824.941" gradientUnits="userSpaceOnUse">
<stop stop-color="#0050B1"/>
<stop offset="1" stop-color="#17007E"/>
</linearGradient>
<linearGradient id="paint100_linear_33_1890" x1="355.992" y1="782.941" x2="355.992" y2="830.531" gradientUnits="userSpaceOnUse">
<stop stop-color="#0050B1"/>
<stop offset="1" stop-color="#17007E"/>
</linearGradient>
<linearGradient id="paint101_linear_33_1890" x1="247.449" y1="782.941" x2="247.449" y2="837.324" gradientUnits="userSpaceOnUse">
<stop stop-color="#0050B1"/>
<stop offset="1" stop-color="#17007E"/>
</linearGradient>
<linearGradient id="paint102_linear_33_1890" x1="359.147" y1="788.531" x2="359.147" y2="837.324" gradientUnits="userSpaceOnUse">
<stop stop-color="#0050B1"/>
<stop offset="1" stop-color="#17007E"/>
</linearGradient>
<linearGradient id="paint103_linear_33_1890" x1="208.309" y1="795.324" x2="208.309" y2="911.618" gradientUnits="userSpaceOnUse">
<stop stop-color="#0050B1"/>
<stop offset="1" stop-color="#17007E"/>
</linearGradient>
<linearGradient id="paint104_linear_33_1890" x1="330.752" y1="795.324" x2="330.752" y2="911.618" gradientUnits="userSpaceOnUse">
<stop stop-color="#0050B1"/>
<stop offset="1" stop-color="#17007E"/>
</linearGradient>
<linearGradient id="paint105_linear_33_1890" x1="179.915" y1="869.618" x2="179.915" y2="918.411" gradientUnits="userSpaceOnUse">
<stop stop-color="#0050B1"/>
<stop offset="1" stop-color="#17007E"/>
</linearGradient>
<linearGradient id="paint106_linear_33_1890" x1="291.612" y1="869.618" x2="291.612" y2="924" gradientUnits="userSpaceOnUse">
<stop stop-color="#0050B1"/>
<stop offset="1" stop-color="#17007E"/>
</linearGradient>
<linearGradient id="paint107_linear_33_1890" x1="183.069" y1="876.411" x2="183.069" y2="924" gradientUnits="userSpaceOnUse">
<stop stop-color="#0050B1"/>
<stop offset="1" stop-color="#17007E"/>
</linearGradient>
<linearGradient id="paint108_linear_33_1890" x1="233.545" y1="882" x2="233.545" y2="924" gradientUnits="userSpaceOnUse">
<stop stop-color="#0050B1"/>
<stop offset="1" stop-color="#17007E"/>
</linearGradient>
<linearGradient id="paint109_linear_33_1890" x1="17.1707" y1="329.647" x2="17.1707" y2="428.706" gradientUnits="userSpaceOnUse">
<stop stop-color="#0050B1"/>
<stop offset="1" stop-color="#17007E"/>
</linearGradient>
<linearGradient id="paint110_linear_33_1890" x1="53.156" y1="306.647" x2="53.156" y2="329.647" gradientUnits="userSpaceOnUse">
<stop stop-color="#0050B1"/>
<stop offset="1" stop-color="#17007E"/>
</linearGradient>
<linearGradient id="paint111_linear_33_1890" x1="103.632" y1="306.647" x2="103.632" y2="335.236" gradientUnits="userSpaceOnUse">
<stop stop-color="#0050B1"/>
<stop offset="1" stop-color="#17007E"/>
</linearGradient>
<linearGradient id="paint112_linear_33_1890" x1="-4.91114" y1="306.647" x2="-4.91114" y2="342.029" gradientUnits="userSpaceOnUse">
<stop stop-color="#0050B1"/>
<stop offset="1" stop-color="#17007E"/>
</linearGradient>
<linearGradient id="paint113_linear_33_1890" x1="106.787" y1="312.236" x2="106.787" y2="342.029" gradientUnits="userSpaceOnUse">
<stop stop-color="#0050B1"/>
<stop offset="1" stop-color="#17007E"/>
</linearGradient>
<linearGradient id="paint114_linear_33_1890" x1="78.3922" y1="319.029" x2="78.3922" y2="416.323" gradientUnits="userSpaceOnUse">
<stop stop-color="#0050B1"/>
<stop offset="1" stop-color="#17007E"/>
</linearGradient>
<linearGradient id="paint115_linear_33_1890" x1="39.2524" y1="393.323" x2="39.2524" y2="428.706" gradientUnits="userSpaceOnUse">
<stop stop-color="#0050B1"/>
<stop offset="1" stop-color="#17007E"/>
</linearGradient>
<linearGradient id="paint116_linear_33_1890" x1="-18.8147" y1="405.706" x2="-18.8147" y2="428.706" gradientUnits="userSpaceOnUse">
<stop stop-color="#0050B1"/>
<stop offset="1" stop-color="#17007E"/>
</linearGradient>
<linearGradient id="paint117_linear_33_1890" x1="192.599" y1="94.3818" x2="192.599" y2="181.058" gradientUnits="userSpaceOnUse">
<stop stop-color="#0050B1"/>
<stop offset="1" stop-color="#17007E"/>
</linearGradient>
<linearGradient id="paint118_linear_33_1890" x1="224.086" y1="70.3818" x2="224.086" y2="94.3818" gradientUnits="userSpaceOnUse">
<stop stop-color="#0050B1"/>
<stop offset="1" stop-color="#17007E"/>
</linearGradient>
<linearGradient id="paint119_linear_33_1890" x1="274.828" y1="70.3818" x2="274.828" y2="99.763" gradientUnits="userSpaceOnUse">
<stop stop-color="#0050B1"/>
<stop offset="1" stop-color="#17007E"/>
</linearGradient>
<linearGradient id="paint120_linear_33_1890" x1="166.581" y1="70.3818" x2="166.581" y2="105.216" gradientUnits="userSpaceOnUse">
<stop stop-color="#0050B1"/>
<stop offset="1" stop-color="#17007E"/>
</linearGradient>
<linearGradient id="paint121_linear_33_1890" x1="278.545" y1="75.7629" x2="278.545" y2="105.216" gradientUnits="userSpaceOnUse">
<stop stop-color="#0050B1"/>
<stop offset="1" stop-color="#17007E"/>
</linearGradient>
<linearGradient id="paint122_linear_33_1890" x1="131.377" y1="81.2163" x2="131.377" y2="170.224" gradientUnits="userSpaceOnUse">
<stop stop-color="#0050B1"/>
<stop offset="1" stop-color="#17007E"/>
</linearGradient>
<linearGradient id="paint123_linear_33_1890" x1="253.82" y1="81.2163" x2="253.82" y2="170.224" gradientUnits="userSpaceOnUse">
<stop stop-color="#0050B1"/>
<stop offset="1" stop-color="#17007E"/>
</linearGradient>
<linearGradient id="paint124_linear_33_1890" x1="106.652" y1="146.224" x2="106.652" y2="175.677" gradientUnits="userSpaceOnUse">
<stop stop-color="#0050B1"/>
<stop offset="1" stop-color="#17007E"/>
</linearGradient>
<linearGradient id="paint125_linear_33_1890" x1="218.616" y1="146.224" x2="218.616" y2="181.058" gradientUnits="userSpaceOnUse">
<stop stop-color="#0050B1"/>
<stop offset="1" stop-color="#17007E"/>
</linearGradient>
<linearGradient id="paint126_linear_33_1890" x1="110.369" y1="151.677" x2="110.369" y2="181.058" gradientUnits="userSpaceOnUse">
<stop stop-color="#0050B1"/>
<stop offset="1" stop-color="#17007E"/>
</linearGradient>
<linearGradient id="paint127_linear_33_1890" x1="161.112" y1="157.058" x2="161.112" y2="181.058" gradientUnits="userSpaceOnUse">
<stop stop-color="#0050B1"/>
<stop offset="1" stop-color="#17007E"/>
</linearGradient>
<linearGradient id="paint128_linear_33_1890" x1="422.119" y1="-4.67578" x2="422.119" y2="69.6183" gradientUnits="userSpaceOnUse">
<stop stop-color="#0050B1"/>
<stop offset="1" stop-color="#17007E"/>
</linearGradient>
<linearGradient id="paint129_linear_33_1890" x1="500.144" y1="-25.6758" x2="500.144" y2="0.408989" gradientUnits="userSpaceOnUse">
<stop stop-color="#0050B1"/>
<stop offset="1" stop-color="#17007E"/>
</linearGradient>
<linearGradient id="paint130_linear_33_1890" x1="392.165" y1="-25.6758" x2="392.165" y2="4.61098" gradientUnits="userSpaceOnUse">
<stop stop-color="#0050B1"/>
<stop offset="1" stop-color="#17007E"/>
</linearGradient>
<linearGradient id="paint131_linear_33_1890" x1="504.423" y1="-20.5911" x2="504.423" y2="4.61093" gradientUnits="userSpaceOnUse">
<stop stop-color="#0050B1"/>
<stop offset="1" stop-color="#17007E"/>
</linearGradient>
<linearGradient id="paint132_linear_33_1890" x1="360.897" y1="-16.3889" x2="360.897" y2="60.3317" gradientUnits="userSpaceOnUse">
<stop stop-color="#0050B1"/>
<stop offset="1" stop-color="#17007E"/>
</linearGradient>
<linearGradient id="paint133_linear_33_1890" x1="483.341" y1="-16.3889" x2="483.341" y2="60.3317" gradientUnits="userSpaceOnUse">
<stop stop-color="#0050B1"/>
<stop offset="1" stop-color="#17007E"/>
</linearGradient>
<linearGradient id="paint134_linear_33_1890" x1="339.816" y1="39.3315" x2="339.816" y2="64.5335" gradientUnits="userSpaceOnUse">
<stop stop-color="#0050B1"/>
<stop offset="1" stop-color="#17007E"/>
</linearGradient>
<linearGradient id="paint135_linear_33_1890" x1="452.073" y1="39.3315" x2="452.073" y2="69.6183" gradientUnits="userSpaceOnUse">
<stop stop-color="#0050B1"/>
<stop offset="1" stop-color="#17007E"/>
</linearGradient>
<linearGradient id="paint136_linear_33_1890" x1="344.095" y1="43.5334" x2="344.095" y2="69.6182" gradientUnits="userSpaceOnUse">
<stop stop-color="#0050B1"/>
<stop offset="1" stop-color="#17007E"/>
</linearGradient>
<linearGradient id="paint137_linear_33_1890" x1="395.131" y1="48.6184" x2="395.131" y2="69.6184" gradientUnits="userSpaceOnUse">
<stop stop-color="#0050B1"/>
<stop offset="1" stop-color="#17007E"/>
</linearGradient>
<linearGradient id="paint138_linear_33_1890" x1="1094.57" y1="952.707" x2="283.078" y2="513.545" gradientUnits="userSpaceOnUse">
<stop stop-color="#0B63CE"/>
<stop offset="1" stop-color="#0B63CE" stop-opacity="0"/>
</linearGradient>
<clipPath id="clip0_33_1890">
<rect width="1060" height="900" fill="white"/>
</clipPath>
</defs>
</svg>
