<svg width="512" height="513" viewBox="0 0 512 513" fill="none" xmlns="http://www.w3.org/2000/svg">
<path fill-rule="evenodd" clip-rule="evenodd" d="M485.855 44.059C503.601 44.059 514.996 58.1655 511.306 75.5667L434.479 437.905C430.789 455.306 413.412 469.413 395.666 469.413H26.1453C8.39916 469.413 -2.99589 455.306 0.693736 437.905L77.5214 75.5667C81.211 58.1655 98.5881 44.059 116.334 44.059L485.855 44.059ZM93.0332 343.382C88.2134 343.382 84.3321 346.533 83.33 351.259L73.309 398.521C72.3069 403.247 74.8521 406.397 79.6719 406.397H127.87C132.69 406.397 136.571 403.247 137.573 398.521L147.594 351.259C148.597 346.533 146.051 343.382 141.232 343.382H93.0332ZM190.065 264.613C185.246 264.613 181.364 267.764 180.362 272.49L170.341 319.751C169.339 324.477 171.884 327.628 176.704 327.628H224.902C229.722 327.628 233.604 324.477 234.606 319.751L244.627 272.49C245.629 267.764 243.084 264.613 238.264 264.613H190.065ZM350.727 264.613C345.907 264.613 342.025 267.764 341.023 272.49L331.002 319.751C330 324.477 332.545 327.628 337.365 327.628H385.563C390.383 327.628 394.265 324.477 395.267 319.751L405.288 272.49C406.29 267.764 403.745 264.613 398.925 264.613H350.727ZM287.098 185.844C282.278 185.844 278.396 188.994 277.394 193.721L267.373 240.982C266.371 245.708 268.916 248.859 273.736 248.859H321.935C326.754 248.859 330.636 245.708 331.638 240.982L341.659 193.721C342.661 188.994 340.116 185.844 335.296 185.844H287.098ZM367.428 185.844C362.608 185.844 358.727 188.994 357.725 193.721L347.704 240.982C346.702 245.708 349.247 248.859 354.067 248.859H402.265C407.085 248.859 410.966 245.708 411.968 240.982L421.989 193.721C422.991 188.994 420.446 185.844 415.626 185.844H367.428ZM223.469 107.074C218.649 107.074 214.768 110.225 213.766 114.951L203.745 162.213C202.742 166.939 205.288 170.09 210.107 170.09H258.306C263.126 170.09 267.007 166.939 268.009 162.213L278.03 114.951C279.032 110.225 276.487 107.074 271.667 107.074H223.469ZM303.799 107.074C298.979 107.074 295.098 110.225 294.096 114.951L284.075 162.213C283.073 166.939 285.618 170.09 290.438 170.09H338.636C343.456 170.09 347.337 166.939 348.339 162.213L358.36 114.951C359.363 110.225 356.817 107.074 351.998 107.074H303.799ZM384.13 107.074C379.31 107.074 375.429 110.225 374.427 114.951L364.406 162.213C363.403 166.939 365.949 170.09 370.768 170.09H418.967C423.787 170.09 427.668 166.939 428.67 162.213L438.691 114.951C439.693 110.225 437.148 107.074 432.328 107.074H384.13Z" fill="white"/>
</svg>
