<svg width="275" height="77" viewBox="0 0 275 77" fill="none" xmlns="http://www.w3.org/2000/svg">
<path fill-rule="evenodd" clip-rule="evenodd" d="M69.1808 5.59998C71.4337 5.59998 72.8803 7.39084 72.4119 9.59998L62.6584 55.6C62.19 57.8091 59.9839 59.6 57.731 59.6H10.8192C8.5663 59.6 7.11966 57.8091 7.58807 55.6L17.3416 9.59998C17.81 7.39084 20.0161 5.59998 22.269 5.59998L69.1808 5.59998ZM19.3109 43.6C18.699 43.6 18.2062 44 18.079 44.6L16.8068 50.6C16.6796 51.2 17.0027 51.6 17.6146 51.6H23.7335C24.3454 51.6 24.8382 51.2 24.9654 50.6L26.2376 44.6C26.3648 44 26.0417 43.6 25.4298 43.6H19.3109ZM31.6294 33.6C31.0175 33.6 30.5248 34 30.3975 34.6L29.1253 40.6C28.9981 41.2 29.3212 41.6 29.9331 41.6H36.0521C36.664 41.6 37.1567 41.2 37.2839 40.6L38.5561 34.6C38.6833 34 38.3602 33.6 37.7483 33.6H31.6294ZM52.0258 33.6C51.4139 33.6 50.9212 34 50.794 34.6L49.5218 40.6C49.3946 41.2 49.7177 41.6 50.3296 41.6H56.4485C57.0604 41.6 57.5531 41.2 57.6803 40.6L58.9525 34.6C59.0798 34 58.7566 33.6 58.1447 33.6H52.0258ZM43.9479 23.6C43.336 23.6 42.8433 24 42.7161 24.6L41.4439 30.6C41.3167 31.2 41.6398 31.6 42.2517 31.6H48.3706C48.9825 31.6 49.4752 31.2 49.6025 30.6L50.8747 24.6C51.0019 24 50.6788 23.6 50.0669 23.6H43.9479ZM54.1461 23.6C53.5343 23.6 53.0415 24 52.9143 24.6L51.6421 30.6C51.5149 31.2 51.838 31.6 52.4499 31.6H58.5688C59.1807 31.6 59.6734 31.2 59.8007 30.6L61.0729 24.6C61.2001 24 60.877 23.6 60.2651 23.6H54.1461ZM35.8701 13.6C35.2582 13.6 34.7654 14 34.6382 14.6L33.366 20.6C33.2388 21.2 33.5619 21.6 34.1738 21.6H40.2927C40.9046 21.6 41.3974 21.2 41.5246 20.6L42.7968 14.6C42.924 14 42.6009 13.6 41.989 13.6H35.8701ZM46.0683 13.6C45.4564 13.6 44.9636 14 44.8364 14.6L43.5642 20.6C43.437 21.2 43.7601 21.6 44.372 21.6H50.4909C51.1028 21.6 51.5956 21.2 51.7228 20.6L52.995 14.6C53.1222 14 52.7991 13.6 52.1872 13.6H46.0683ZM56.2665 13.6C55.6546 13.6 55.1618 14 55.0346 14.6L53.7624 20.6C53.6352 21.2 53.9583 21.6 54.5702 21.6H60.6891C61.301 21.6 61.7938 21.2 61.921 20.6L63.1932 14.6C63.3204 14 62.9973 13.6 62.3854 13.6H56.2665Z" fill="white"/>
<path d="M187.681 14.7889C186.481 14.1889 185.281 13.9889 183.681 13.9889C179.681 13.9889 175.881 16.4889 172.981 21.1889L172.681 15.3889C172.681 15.0889 172.481 14.8889 172.181 14.8889H169.181C168.881 14.8889 168.681 15.0889 168.681 15.3889V53.7889C168.681 54.0889 168.881 54.2889 169.181 54.2889H172.681C172.981 54.2889 173.181 54.0889 173.181 53.7889V27.7889C175.581 21.7889 179.281 18.2889 183.181 18.2889C184.581 18.2889 185.181 18.4889 186.481 18.8889H186.881C186.981 18.7889 187.081 18.6889 187.081 18.5889L187.881 15.3889C187.981 15.0889 187.881 14.8889 187.681 14.7889ZM219.281 14.8889H216.181C215.881 14.8889 215.681 15.0889 215.681 15.3889L215.481 18.2889C212.181 15.6889 208.981 13.9889 204.381 13.9889C194.181 13.9889 186.881 22.6889 186.881 34.6889C186.881 47.5889 192.981 55.2889 203.281 55.2889C207.481 55.2889 211.681 53.3889 215.581 49.7889L215.881 53.8889C215.881 54.1889 216.081 54.3889 216.381 54.3889H219.381C219.681 54.3889 219.881 54.1889 219.881 53.8889V15.3889C219.781 15.0889 219.581 14.8889 219.281 14.8889ZM215.281 22.6889V44.9889C211.181 49.1889 207.581 50.9889 203.781 50.9889C196.181 50.9889 191.581 44.7889 191.581 34.4889C191.581 25.1889 197.281 17.8889 204.581 17.8889C208.381 17.9889 211.581 19.3889 215.281 22.6889ZM257.481 15.0889C257.381 14.9889 257.281 14.8889 257.081 14.8889H253.481C253.281 14.8889 253.081 14.9889 252.981 15.1889L244.781 39.2889C244.381 40.5889 243.881 41.9889 243.481 43.3889C242.881 45.3889 242.181 47.3889 241.581 49.1889C240.781 47.1889 239.981 44.9889 239.181 42.8889C238.681 41.5889 238.181 40.3889 237.781 39.1889L228.581 15.0889C228.481 14.8889 228.281 14.7889 228.081 14.7889H224.281C224.081 14.7889 223.981 14.8889 223.881 14.9889C223.781 15.0889 223.781 15.2889 223.881 15.4889L239.581 54.3889L238.581 57.5889C237.081 62.0889 234.281 67.3889 229.181 67.3889C228.181 67.3889 226.981 67.0889 226.181 66.7889H225.781L225.481 67.0889L224.681 70.1889C224.581 70.3889 224.781 70.6889 224.981 70.7889C226.081 71.2889 227.681 71.5889 229.081 71.5889C234.981 71.5889 239.581 67.0889 242.481 58.5889L257.581 15.3889C257.681 15.3889 257.581 15.1889 257.481 15.0889Z" fill="white"/>
<path d="M95.3412 54.6803C89.9931 54.6803 85.9326 53.3433 83.1596 50.6692C80.3865 47.9952 79 43.9595 79 38.5619C79 37.4725 79.099 36.2841 79.2971 34.9966C79.4952 33.7091 79.6933 32.4464 79.8913 31.2084L85.0908 5.21112H93.1128L87.6905 32.3969C87.2449 34.4766 87.022 36.3831 87.022 38.1163C87.022 41.2359 87.6905 43.6376 89.0275 45.3212C90.414 46.9553 92.6176 47.7724 95.6383 47.7724C98.2132 47.7724 100.442 46.7325 102.323 44.6527C104.205 42.5729 105.616 39.0819 106.557 34.1795L112.351 5.21112H120.224L114.356 34.1795C112.92 41.4093 110.593 46.6335 107.374 49.8522C104.155 53.0709 100.144 54.6803 95.3412 54.6803ZM122.444 53.7889L132.1 5.21112H146.659C149.778 5.21112 152.526 5.63203 154.903 6.47385C157.33 7.26614 159.212 8.57839 160.549 10.4106C161.935 12.2428 162.628 14.6444 162.628 17.6155C162.628 21.8246 161.663 25.2662 159.731 27.9402C157.8 30.5647 155.176 32.4959 151.858 33.7339C148.59 34.9718 144.901 35.5908 140.791 35.5908H134.031L130.466 53.7889H122.444ZM135.368 29.2029H141.459C145.718 29.2029 148.986 28.3363 151.264 26.6032C153.542 24.8205 154.681 22.196 154.681 18.7297C154.681 16.2538 153.863 14.4464 152.229 13.3074C150.595 12.1685 148.243 11.599 145.173 11.599H138.785L135.368 29.2029Z" fill="white"/>
</svg>
